<svg xmlns="http://www.w3.org/2000/svg" xmlns:xlink="http://www.w3.org/1999/xlink" width="1080" zoomAndPan="magnify" viewBox="0 0 810 809.999993" height="1080" preserveAspectRatio="xMidYMid meet" version="1.0"><defs><clipPath id="65bbb014ad"><path d="M 167.0625 0 L 643.3125 0 L 643.3125 753 L 167.0625 753 Z M 167.0625 0 " clip-rule="nonzero"/></clipPath></defs><path fill="#4caf4f" d="M 512.585938 763.617188 C 512.585938 788.714844 464.960938 809.054688 406.207031 809.054688 C 347.453125 809.054688 299.832031 788.714844 299.832031 763.617188 C 299.832031 738.539062 347.453125 718.179688 406.207031 718.179688 C 464.960938 718.179688 512.585938 738.539062 512.585938 763.617188 " fill-opacity="1" fill-rule="nonzero"/><path fill="#000000" d="M 510.414062 752.621094 C 510.414062 777.71875 463.277344 798.058594 405.125 798.058594 C 346.96875 798.058594 299.832031 777.71875 299.832031 752.621094 C 299.832031 727.523438 346.96875 707.183594 405.125 707.183594 C 463.277344 707.183594 510.414062 727.523438 510.414062 752.621094 " fill-opacity="1" fill-rule="nonzero"/><g clip-path="url(#65bbb014ad)"><path fill="#4caf4f" d="M 409.179688 0.941406 C 407.777344 0.941406 406.390625 1.023438 405.007812 1.058594 C 403.605469 1.023438 402.21875 0.941406 400.816406 0.941406 C 271.664062 0.941406 166.957031 110.105469 166.957031 244.75 C 166.957031 267.726562 175.867188 320.855469 189.25 342.898438 L 405.007812 752.621094 L 620.746094 342.898438 C 634.128906 320.855469 643.039062 267.726562 643.039062 244.75 C 643.039062 110.105469 538.347656 0.941406 409.179688 0.941406 " fill-opacity="1" fill-rule="nonzero"/></g><path fill="#ffffff" d="M 534.160156 217.582031 C 534.160156 288.917969 476.324219 346.738281 405.007812 346.738281 C 333.671875 346.738281 275.835938 288.917969 275.835938 217.582031 C 275.835938 146.246094 333.671875 88.429688 405.007812 88.429688 C 476.324219 88.429688 534.160156 146.246094 534.160156 217.582031 " fill-opacity="1" fill-rule="nonzero"/></svg>