<?xml version="1.0" encoding="UTF-8" ?>
<!DOCTYPE svg PUBLIC "-//W3C//DTD SVG 1.1//EN" "http://www.w3.org/Graphics/SVG/1.1/DTD/svg11.dtd">
<svg width="237pt" height="237pt" viewBox="0 0 500 500" version="1.1" xmlns="http://www.w3.org/2000/svg">
<g id="#ffffffff">
<path fill="#ffffff" opacity="1.00" d=" M 130.17 211.19 C 139.77 211.24 149.38 211.13 158.99 211.26 C 164.53 211.19 170.03 213.21 174.35 216.65 C 181.83 222.84 184.17 233.93 181.11 242.95 C 179.09 249.29 173.97 254.54 167.73 256.81 C 160.47 259.86 152.44 258.49 144.80 258.80 C 144.79 265.68 144.78 272.57 144.85 279.45 C 139.95 279.44 135.05 279.38 130.15 279.43 C 130.21 256.69 130.18 233.94 130.17 211.19 M 144.79 224.67 C 144.78 231.59 144.78 238.50 144.78 245.42 C 150.09 245.13 155.56 246.07 160.76 244.82 C 168.10 242.67 169.89 231.60 163.96 227.06 C 158.35 223.15 151.16 225.20 144.79 224.67 Z" />
<path fill="#ffffff" opacity="1.00" d=" M 190.81 211.21 C 199.88 211.22 208.94 211.16 218.01 211.24 C 227.09 211.14 236.09 215.06 242.43 221.52 C 254.71 234.17 254.59 256.60 242.17 269.11 C 235.44 276.11 225.56 279.47 215.98 279.43 C 207.60 279.47 199.21 279.43 190.83 279.43 C 190.82 256.69 190.82 233.95 190.81 211.21 M 205.56 224.67 C 205.56 238.37 205.56 252.07 205.57 265.77 C 212.52 265.51 219.96 266.74 226.40 263.43 C 239.45 256.52 239.60 234.72 226.89 227.40 C 220.45 223.51 212.70 224.95 205.56 224.67 Z" />
<path fill="#ffffff" opacity="1.00" d=" M 262.18 211.18 C 278.73 211.23 295.29 211.20 311.84 211.19 C 311.80 215.67 311.80 220.14 311.82 224.61 C 300.14 224.60 288.46 224.58 276.78 224.61 C 276.78 229.17 276.78 233.73 276.79 238.29 C 287.16 238.25 297.53 238.32 307.90 238.25 C 307.88 242.75 307.87 247.26 307.89 251.76 C 297.52 251.70 287.15 251.67 276.78 251.71 C 276.79 256.50 276.78 261.29 276.80 266.09 C 288.66 266.04 300.52 266.07 312.38 265.91 C 312.40 270.43 312.37 274.94 312.41 279.46 C 295.65 279.37 278.90 279.43 262.14 279.40 C 262.29 256.66 262.21 233.92 262.18 211.18 Z" />
<path fill="#ffffff" opacity="1.00" d=" M 317.50 279.45 C 326.98 256.54 336.28 233.56 345.80 210.67 C 350.24 210.66 354.67 210.67 359.11 210.67 C 368.69 233.54 377.81 256.61 387.50 279.42 C 382.35 279.42 377.20 279.45 372.05 279.40 C 370.18 274.31 368.15 269.29 366.21 264.23 C 356.87 264.26 347.54 264.15 338.21 264.29 C 336.42 269.41 334.36 274.44 332.31 279.46 C 327.37 279.38 322.44 279.44 317.50 279.45 M 343.61 250.68 C 349.38 250.75 355.15 250.73 360.92 250.70 C 357.91 243.48 355.27 236.11 352.19 228.91 C 349.39 236.19 346.55 243.46 343.61 250.68 Z" />
</g>
<g id="#0b6b04ff">
<path fill="#0b6b04" opacity="1.00" d=" M 245.37 0.00 L 253.64 0.00 C 292.27 0.39 330.80 9.94 364.99 27.97 C 415.67 54.11 456.86 98.16 479.36 150.57 C 491.63 178.73 498.31 209.19 500.00 239.82 L 500.00 260.68 C 498.01 303.52 485.10 345.88 462.26 382.23 C 444.12 411.22 420.03 436.51 391.83 455.88 C 353.10 482.59 306.81 498.25 259.76 500.00 L 237.46 500.00 C 217.96 498.54 198.43 495.89 179.69 490.15 C 123.18 473.69 72.86 436.64 40.89 387.16 C 14.61 347.47 0.46 300.05 0.00 252.49 L 0.00 236.75 C 1.10 223.37 2.57 209.98 5.47 196.85 C 12.41 165.39 25.23 135.14 43.67 108.69 C 58.09 87.86 75.53 69.06 95.48 53.45 C 123.35 31.55 155.93 15.85 190.24 7.11 C 208.32 2.99 226.81 0.37 245.37 0.00 M 237.89 12.68 C 238.23 17.61 238.60 22.53 238.92 27.45 C 235.54 22.77 232.17 18.07 228.82 13.36 C 227.37 13.45 225.91 13.54 224.46 13.64 C 224.98 21.06 225.52 28.47 226.06 35.89 C 227.45 35.73 228.84 35.57 230.24 35.40 C 229.81 30.63 229.50 25.85 229.18 21.07 C 232.51 25.66 235.80 30.28 239.11 34.89 C 240.61 34.78 242.12 34.68 243.63 34.58 C 243.10 27.18 242.57 19.79 242.04 12.39 C 240.65 12.49 239.27 12.58 237.89 12.68 M 252.96 12.35 C 252.65 19.77 252.34 27.19 252.07 34.61 C 253.55 34.66 255.04 34.71 256.53 34.76 C 256.64 31.62 256.78 28.48 256.94 25.34 C 260.03 25.47 263.13 25.59 266.23 25.70 C 266.27 24.77 266.34 22.89 266.37 21.96 C 263.28 21.83 260.18 21.71 257.09 21.59 C 257.15 19.82 257.22 18.05 257.29 16.28 C 260.88 16.43 264.48 16.57 268.08 16.70 C 268.11 15.77 268.17 13.89 268.21 12.96 C 263.12 12.75 258.04 12.54 252.96 12.35 M 197.58 17.94 C 198.94 25.23 200.35 32.51 201.71 39.80 C 207.25 38.79 212.78 37.71 218.32 36.67 C 218.09 35.44 217.87 34.22 217.65 32.99 C 213.59 33.73 209.53 34.50 205.49 35.30 C 205.07 33.35 204.65 31.40 204.24 29.45 C 207.91 28.63 211.62 27.97 215.32 27.27 C 215.07 26.04 214.82 24.81 214.57 23.58 C 210.91 24.29 207.25 24.98 203.58 25.66 C 203.27 24.04 202.97 22.42 202.66 20.80 C 206.62 20.05 210.57 19.32 214.52 18.53 C 214.34 17.62 213.98 15.79 213.80 14.88 C 208.39 15.89 202.98 16.93 197.58 17.94 M 282.32 15.42 C 276.65 17.47 274.62 24.44 275.61 29.91 C 276.96 38.15 289.40 40.84 294.33 34.30 C 297.10 30.52 297.82 25.21 296.11 20.84 C 293.95 15.69 287.33 13.83 282.32 15.42 M 308.11 19.23 C 306.04 26.36 303.95 33.49 301.95 40.65 C 303.38 41.05 304.81 41.45 306.24 41.85 C 307.10 38.82 307.97 35.80 308.87 32.78 C 314.39 33.95 314.16 40.51 316.03 44.72 C 317.72 45.19 319.42 45.66 321.12 46.14 C 320.02 42.24 319.23 38.13 316.74 34.82 C 318.38 34.59 320.24 34.71 321.62 33.59 C 324.83 31.29 325.11 25.60 321.49 23.55 C 317.28 21.45 312.56 20.68 308.11 19.23 M 159.56 31.50 C 155.71 36.94 158.34 44.95 163.54 48.53 C 169.58 52.12 178.02 48.28 180.86 42.30 C 180.04 39.50 178.82 36.85 177.79 34.12 C 174.85 35.27 171.91 36.39 168.94 37.45 C 169.30 38.67 169.67 39.88 170.04 41.10 C 171.67 40.49 173.29 39.87 174.92 39.26 C 175.28 40.16 175.64 41.06 176.00 41.96 C 174.00 44.54 170.72 47.00 167.30 45.64 C 163.80 43.93 161.98 39.71 162.17 35.96 C 162.76 31.35 169.13 29.14 172.41 32.53 C 173.65 31.79 174.89 31.04 176.14 30.29 C 172.20 24.47 163.28 26.53 159.56 31.50 M 335.07 32.10 C 331.36 35.15 328.97 40.13 329.57 44.97 C 330.29 50.59 336.62 54.32 341.94 52.99 C 343.95 52.48 345.39 50.89 346.93 49.61 C 345.83 48.58 344.73 47.55 343.64 46.52 C 342.47 47.42 341.41 48.50 340.03 49.08 C 337.06 49.87 333.44 47.28 333.88 44.04 C 334.29 40.39 335.76 36.04 339.41 34.50 C 342.95 33.34 346.40 36.47 346.24 40.06 C 347.70 40.30 349.18 40.53 350.65 40.76 C 351.75 32.77 341.18 27.38 335.07 32.10 M 141.50 38.53 C 143.84 43.14 146.59 47.55 148.63 52.30 C 150.67 56.58 143.11 60.10 140.96 56.00 C 138.29 51.71 136.18 47.09 133.72 42.69 C 132.40 43.38 131.08 44.08 129.77 44.79 C 132.76 49.93 134.88 55.65 138.67 60.28 C 141.89 63.67 147.08 61.69 150.30 59.32 C 153.00 57.63 154.41 54.05 152.95 51.08 C 150.85 46.03 147.89 41.40 145.50 36.49 C 144.16 37.16 142.83 37.85 141.50 38.53 M 350.75 59.11 C 355.60 61.93 360.52 64.65 365.38 67.47 C 366.01 66.38 366.65 65.30 367.29 64.22 C 363.69 62.16 360.08 60.12 356.48 58.06 C 357.46 56.32 358.45 54.58 359.44 52.84 C 362.71 54.64 365.94 56.51 369.19 58.34 C 369.81 57.26 370.43 56.17 371.05 55.09 C 367.83 53.24 364.61 51.40 361.35 49.62 C 362.15 48.15 362.95 46.69 363.75 45.24 C 367.25 47.20 370.73 49.20 374.22 51.18 C 374.84 50.10 375.47 49.03 376.10 47.96 C 371.35 45.19 366.54 42.51 361.77 39.78 C 358.03 46.18 354.41 52.66 350.75 59.11 M 231.60 45.82 C 222.34 46.47 213.20 48.16 204.17 50.26 C 152.12 61.81 105.32 94.93 76.91 140.01 C 58.44 168.59 47.61 201.99 45.29 235.91 C 43.64 266.52 48.06 297.62 59.59 326.10 C 69.07 350.10 83.47 372.07 101.24 390.75 C 132.98 424.78 176.92 446.84 222.96 453.05 C 231.24 454.20 239.62 454.34 247.96 454.88 C 273.32 454.99 298.69 450.47 322.43 441.54 C 359.35 427.33 392.33 402.62 415.49 370.45 C 437.34 340.66 450.76 304.80 454.02 268.01 C 454.47 259.34 455.50 250.66 454.50 241.99 C 452.71 195.81 434.90 150.30 404.35 115.57 C 384.63 92.57 359.47 74.49 331.85 62.17 C 300.40 48.78 265.72 42.69 231.60 45.82 M 105.63 60.72 C 109.88 66.77 114.12 72.83 118.32 78.92 C 119.55 78.10 120.77 77.28 122.00 76.47 C 120.27 73.85 118.47 71.28 116.65 68.72 C 120.88 65.00 125.96 69.30 130.31 70.58 C 131.80 69.56 133.28 68.53 134.76 67.49 C 131.02 65.88 127.28 63.93 123.12 63.78 C 124.08 62.32 125.40 60.87 125.30 59.00 C 125.36 55.05 120.92 51.33 117.10 53.10 C 112.97 55.12 109.43 58.15 105.63 60.72 M 371.82 71.21 C 372.90 72.09 373.98 72.96 375.07 73.84 C 378.38 69.51 381.51 65.03 384.91 60.77 C 383.38 66.09 380.65 70.96 378.90 76.20 C 379.52 77.48 381.06 78.11 382.09 79.08 C 386.66 75.46 391.04 71.60 395.71 68.11 C 392.45 72.70 388.98 77.14 385.67 81.69 C 386.78 82.51 387.89 83.33 389.00 84.14 C 393.44 78.20 397.89 72.27 402.29 66.30 C 400.49 64.96 398.70 63.62 396.91 62.28 C 392.84 65.50 388.84 68.80 384.74 71.97 C 386.60 67.15 388.49 62.34 390.47 57.57 C 388.70 56.17 386.90 54.81 385.09 53.46 C 380.65 59.37 376.28 65.32 371.82 71.21 M 83.86 79.39 C 88.85 84.83 93.51 90.71 98.79 95.79 C 101.70 93.39 104.62 90.93 107.09 88.08 C 109.89 84.77 108.83 79.86 106.32 76.73 C 103.60 73.01 98.88 69.38 94.04 71.23 C 90.06 73.10 87.23 76.66 83.86 79.39 M 395.15 89.58 C 399.19 93.29 402.94 97.32 407.11 100.89 C 408.35 100.84 409.00 99.27 409.96 98.55 C 406.94 95.71 403.96 92.83 400.98 89.95 C 402.36 88.50 403.76 87.05 405.15 85.61 C 407.84 88.16 410.51 90.73 413.17 93.31 C 414.06 92.43 414.95 91.55 415.85 90.67 C 413.16 88.07 410.46 85.48 407.76 82.89 C 408.90 81.69 410.04 80.50 411.18 79.30 C 414.08 82.08 416.97 84.87 419.88 87.64 C 420.73 86.74 421.59 85.84 422.46 84.94 C 418.51 81.12 414.52 77.33 410.59 73.50 C 405.42 78.83 400.29 84.21 395.15 89.58 M 412.48 106.79 C 413.36 107.85 414.25 108.91 415.13 109.97 C 418.85 106.92 422.52 103.81 426.27 100.81 C 424.51 106.20 422.65 111.54 420.83 116.91 C 421.80 118.06 422.76 119.21 423.74 120.37 C 429.43 115.64 435.14 110.94 440.85 106.23 C 440.02 105.16 439.20 104.10 438.38 103.03 C 434.39 105.98 430.72 109.32 426.82 112.38 C 428.62 106.89 430.55 101.44 432.41 95.97 C 431.49 94.84 430.58 93.72 429.68 92.59 C 423.93 97.31 418.19 102.03 412.48 106.79 M 58.30 108.38 C 57.84 109.12 56.36 110.35 57.89 110.99 C 63.38 115.33 68.91 119.61 74.39 123.96 C 77.89 119.54 81.36 115.10 84.84 110.67 C 83.87 109.90 82.89 109.13 81.91 108.36 C 79.33 111.60 76.82 114.90 74.18 118.10 C 72.60 116.85 71.03 115.61 69.46 114.36 C 71.74 111.47 74.01 108.56 76.34 105.71 C 75.39 104.88 74.44 104.05 73.50 103.22 C 71.15 106.14 68.84 109.09 66.55 112.05 C 65.23 111.04 63.92 110.02 62.61 109.01 C 65.09 105.83 67.62 102.69 70.06 99.48 C 69.07 98.73 68.09 97.98 67.11 97.23 C 64.18 100.95 61.25 104.67 58.30 108.38 M 443.10 115.87 C 444.30 117.74 445.51 119.60 446.73 121.45 C 441.57 124.86 436.37 128.20 431.20 131.60 C 432.02 132.83 432.86 134.07 433.69 135.31 C 438.84 131.94 444.01 128.57 449.17 125.22 C 450.37 127.06 451.57 128.90 452.77 130.74 C 453.81 130.06 454.86 129.38 455.91 128.71 C 452.90 124.13 449.97 119.49 446.94 114.93 C 446.01 113.03 444.28 115.59 443.10 115.87 M 48.55 122.70 C 52.77 125.23 56.97 127.80 61.13 130.42 C 55.34 130.44 49.56 130.43 43.77 130.42 C 43.01 131.66 42.24 132.89 41.48 134.13 C 47.77 138.03 54.11 141.86 60.39 145.78 C 61.15 144.64 61.90 143.51 62.66 142.37 C 58.63 139.65 54.40 137.26 50.31 134.64 C 56.00 134.58 61.68 134.64 67.37 134.56 C 68.13 133.29 68.90 132.02 69.67 130.75 C 63.35 126.86 57.01 122.99 50.69 119.09 C 49.98 120.29 49.26 121.49 48.55 122.70 M 34.76 147.15 C 41.38 150.53 48.05 153.80 54.71 157.09 C 55.35 155.75 56.00 154.41 56.65 153.07 C 50.00 149.79 43.38 146.48 36.74 143.19 C 36.08 144.50 35.42 145.83 34.76 147.15 M 445.55 155.76 C 446.12 157.18 446.71 158.61 447.29 160.04 C 449.11 159.99 450.94 159.93 452.78 159.88 C 453.93 162.59 455.10 165.30 456.27 168.00 C 454.98 169.26 453.70 170.52 452.42 171.78 C 453.05 173.26 453.68 174.74 454.31 176.23 C 460.02 170.59 465.70 164.93 471.28 159.17 C 470.60 157.74 469.93 156.30 469.26 154.87 C 461.36 155.26 453.45 155.45 445.55 155.76 M 29.59 159.58 C 27.19 163.20 26.12 167.50 24.39 171.45 C 31.27 174.20 38.17 176.90 45.07 179.63 C 45.62 178.25 46.18 176.87 46.73 175.49 C 44.16 174.45 41.58 173.44 38.98 172.45 C 39.95 169.67 41.30 166.94 41.47 163.96 C 41.39 158.37 33.28 155.28 29.59 159.58 M 458.70 185.74 C 457.43 191.30 460.45 197.06 464.85 200.38 C 467.69 199.48 470.55 198.66 473.42 197.86 C 472.57 194.75 471.67 191.65 470.77 188.55 C 469.55 188.90 468.34 189.25 467.14 189.60 C 467.62 191.23 468.10 192.86 468.59 194.50 C 467.88 194.73 466.48 195.18 465.78 195.41 C 463.46 193.23 461.31 189.95 462.70 186.67 C 464.59 183.10 469.22 181.52 473.04 182.15 C 477.59 183.24 479.02 189.66 475.46 192.70 C 476.13 193.96 476.80 195.23 477.48 196.49 C 485.03 191.89 481.18 178.86 472.90 177.67 C 467.18 176.74 460.28 179.81 458.70 185.74 M 20.37 185.39 C 18.69 189.16 18.02 193.27 16.85 197.21 C 24.01 199.20 31.18 201.17 38.38 203.01 C 38.75 201.58 39.12 200.16 39.49 198.74 C 36.80 198.01 34.10 197.29 31.41 196.54 C 32.14 193.47 33.44 190.30 32.82 187.10 C 31.45 181.84 22.96 180.35 20.37 185.39 M 463.64 208.75 C 464.51 214.28 465.49 219.79 466.30 225.34 C 467.55 225.18 468.80 225.02 470.06 224.87 C 469.41 220.75 468.71 216.65 468.07 212.53 C 470.05 212.21 472.03 211.88 474.03 211.56 C 474.62 215.24 475.23 218.91 475.82 222.58 C 476.75 222.44 478.60 222.15 479.53 222.01 C 478.93 218.32 478.33 214.64 477.73 210.96 C 479.33 210.68 480.94 210.40 482.56 210.13 C 483.26 214.08 483.90 218.04 484.54 222.01 C 485.77 221.80 487.01 221.60 488.26 221.40 C 487.35 215.97 486.50 210.54 485.56 205.12 C 478.25 206.36 470.94 207.52 463.64 208.75 M 13.97 211.73 C 21.30 213.02 28.61 214.38 35.94 215.66 C 36.14 214.16 36.34 212.67 36.54 211.17 C 29.25 210.03 22.02 208.58 14.75 207.33 C 14.49 208.79 14.23 210.26 13.97 211.73 M 31.02 222.16 C 30.65 225.86 30.29 229.58 29.93 233.29 C 23.79 232.70 17.65 232.09 11.51 231.50 C 11.36 232.97 11.21 234.46 11.07 235.94 C 18.45 236.68 25.83 237.39 33.22 238.12 C 33.74 232.92 34.26 227.72 34.74 222.51 C 33.50 222.39 32.26 222.27 31.02 222.16 M 467.11 233.06 C 467.17 234.43 467.23 235.81 467.29 237.19 C 472.14 237.00 476.98 236.74 481.83 236.53 C 477.13 239.75 472.43 242.96 467.73 246.17 C 467.79 247.66 467.86 249.16 467.94 250.66 C 475.37 250.27 482.81 250.09 490.24 249.52 C 490.17 248.50 490.03 246.48 489.95 245.46 C 485.12 245.66 480.29 245.98 475.45 246.07 C 480.03 242.62 484.93 239.63 489.59 236.29 C 489.50 234.86 489.41 233.44 489.34 232.02 C 481.93 232.36 474.52 232.69 467.11 233.06 M 10.57 246.09 C 10.55 247.57 10.53 249.05 10.51 250.54 C 17.93 250.66 25.36 250.78 32.78 250.88 C 32.80 249.38 32.82 247.89 32.83 246.40 C 25.41 246.32 17.99 246.16 10.57 246.09 M 470.34 261.25 C 464.60 265.65 465.90 276.10 473.18 278.17 C 473.74 276.77 474.31 275.37 474.87 273.97 C 473.53 273.04 471.76 272.46 471.01 270.89 C 469.86 268.36 471.10 264.76 473.98 264.11 C 477.74 263.20 482.94 263.19 485.33 266.78 C 487.01 269.83 485.03 273.44 481.87 274.42 C 482.10 275.87 482.35 277.33 482.60 278.79 C 489.49 277.57 491.83 268.36 487.78 263.21 C 483.62 258.42 475.46 257.51 470.34 261.25 M 10.57 260.90 C 10.68 262.39 10.78 263.87 10.89 265.37 C 13.78 265.17 16.67 264.94 19.56 264.70 C 19.86 267.62 20.10 270.56 20.29 273.50 C 17.38 273.72 14.46 273.93 11.54 274.15 C 11.65 275.63 11.75 277.11 11.86 278.59 C 19.26 278.07 26.66 277.53 34.06 276.97 C 33.96 275.49 33.85 274.01 33.75 272.54 C 30.51 272.76 27.28 273.00 24.04 273.24 C 23.82 270.32 23.61 267.39 23.40 264.46 C 26.63 264.23 29.86 263.98 33.08 263.74 C 32.99 262.26 32.89 260.78 32.79 259.30 C 25.38 259.79 17.98 260.37 10.57 260.90 M 14.42 293.03 C 14.64 297.17 15.69 301.22 16.60 305.26 C 23.82 303.74 31.08 302.45 38.32 301.02 C 38.03 299.55 37.75 298.09 37.46 296.63 C 34.73 297.16 31.99 297.69 29.25 298.20 C 28.54 295.25 28.37 291.98 26.60 289.41 C 23.25 284.86 14.53 287.18 14.42 293.03 M 475.67 291.65 C 471.95 293.33 467.99 291.05 464.21 290.74 C 463.93 292.21 463.67 293.68 463.41 295.16 C 466.48 295.81 469.66 296.08 472.64 297.14 C 476.51 300.34 479.96 304.03 483.73 307.37 C 484.02 305.62 484.32 303.88 484.61 302.15 C 482.04 300.01 479.54 297.79 477.03 295.58 C 480.24 294.40 483.46 293.24 486.66 292.04 C 486.97 290.34 487.28 288.64 487.61 286.95 C 483.61 288.48 479.65 290.09 475.67 291.65 M 35.43 331.53 C 32.48 332.59 31.75 336.92 34.17 338.91 C 36.64 341.38 41.41 339.52 41.54 336.01 C 41.96 332.83 38.33 330.20 35.43 331.53 M 461.51 331.65 C 458.37 333.03 458.30 337.95 461.37 339.46 C 464.35 341.33 468.52 338.42 467.88 335.00 C 467.63 332.06 464.07 330.21 461.51 331.65 M 435.87 365.54 C 436.91 366.08 437.95 366.64 439.00 367.19 C 440.08 365.33 441.17 363.46 442.26 361.60 C 447.55 364.64 452.82 367.73 458.11 370.79 C 458.83 369.51 459.57 368.25 460.30 366.98 C 455.05 363.84 449.66 360.92 444.47 357.66 C 445.58 355.82 446.67 353.97 447.76 352.13 C 446.96 351.65 445.37 350.71 444.57 350.24 C 441.68 355.34 438.50 360.29 435.87 365.54 M 50.42 354.65 C 46.98 355.68 43.69 357.75 41.81 360.88 C 37.91 367.55 44.11 377.46 51.89 376.56 C 56.21 375.97 60.39 373.38 62.55 369.54 C 66.40 362.24 58.60 351.84 50.42 354.65 M 430.19 373.43 C 434.13 376.27 438.06 379.14 441.97 382.04 C 436.26 381.63 430.56 381.14 424.86 380.68 C 424.01 381.83 423.15 382.98 422.31 384.15 C 428.23 388.48 434.15 392.81 440.08 397.13 C 440.89 396.03 441.70 394.93 442.52 393.84 C 438.66 390.99 434.78 388.20 430.93 385.35 C 436.55 385.76 442.17 386.24 447.80 386.63 C 448.64 385.44 449.50 384.25 450.36 383.06 C 444.45 378.72 438.51 374.41 432.60 370.07 C 431.78 371.18 430.98 372.30 430.19 373.43 M 53.14 387.32 C 54.02 388.49 54.91 389.67 55.79 390.85 C 58.28 388.98 60.77 387.10 63.26 385.23 C 65.11 387.67 66.95 390.12 68.80 392.57 C 69.78 391.86 70.77 391.16 71.76 390.46 C 69.97 387.92 68.11 385.44 66.23 382.97 C 67.64 381.92 69.06 380.88 70.48 379.84 C 72.59 382.69 74.72 385.53 76.86 388.35 C 77.85 387.61 78.83 386.87 79.81 386.14 C 76.79 382.12 73.77 378.09 70.73 374.08 C 64.86 378.49 59.01 382.92 53.14 387.32 M 406.99 401.48 C 412.39 406.44 417.83 411.36 423.25 416.32 C 427.03 412.23 430.77 408.10 434.52 403.97 C 433.61 403.14 432.71 402.31 431.80 401.49 C 429.01 404.51 426.28 407.60 423.44 410.58 C 421.99 409.23 420.53 407.89 419.08 406.56 C 421.56 403.77 424.10 401.04 426.59 398.26 C 425.59 397.46 424.62 396.69 423.63 395.92 C 421.24 398.68 418.79 401.37 416.29 404.03 C 415.10 402.93 413.91 401.83 412.72 400.75 C 415.37 397.79 418.06 394.87 420.74 391.92 C 419.81 391.09 418.90 390.25 417.99 389.43 C 414.31 393.43 410.65 397.46 406.99 401.48 M 67.58 405.77 C 68.57 406.81 69.57 407.86 70.56 408.91 C 72.84 406.78 75.14 404.67 77.47 402.61 C 79.51 404.86 81.56 407.09 83.58 409.36 C 84.52 408.54 85.46 407.72 86.41 406.91 C 84.33 404.62 82.24 402.35 80.15 400.07 C 81.43 398.89 82.72 397.71 84.01 396.54 C 86.43 399.15 88.83 401.77 91.23 404.39 C 92.15 403.55 93.07 402.71 93.99 401.88 C 90.62 398.20 87.22 394.55 83.89 390.84 C 78.30 395.64 72.93 400.70 67.58 405.77 M 83.81 422.50 C 84.88 423.47 85.95 424.44 87.02 425.42 C 92.04 420.10 97.00 414.71 102.04 409.41 C 100.97 408.38 99.90 407.36 98.84 406.35 C 93.84 411.74 88.74 417.04 83.81 422.50 M 388.84 418.00 C 393.66 423.52 398.56 428.99 403.38 434.52 C 406.93 430.92 412.34 428.28 413.44 422.95 C 413.72 416.85 408.71 411.14 402.98 409.62 C 396.85 408.76 393.17 414.77 388.84 418.00 M 105.18 418.27 C 99.62 420.84 94.86 427.56 97.45 433.76 C 99.77 439.34 107.24 441.81 112.13 437.91 C 111.33 436.66 110.53 435.42 109.73 434.18 C 107.88 434.94 105.81 436.33 103.80 435.25 C 101.21 434.09 99.99 430.86 101.48 428.36 C 103.12 424.92 106.52 420.48 110.86 421.96 C 113.81 422.91 114.41 426.11 114.12 428.81 C 115.41 429.38 116.71 429.94 118.01 430.51 C 121.06 423.11 112.27 415.18 105.18 418.27 M 379.53 425.08 C 383.90 430.97 388.29 436.86 392.69 442.74 C 393.85 441.86 395.02 440.98 396.19 440.11 C 391.83 434.21 387.44 428.33 383.06 422.46 C 381.88 423.32 380.70 424.20 379.53 425.08 M 115.17 447.93 C 119.88 450.90 124.60 453.84 129.31 456.81 C 129.96 455.80 130.61 454.80 131.26 453.80 C 127.90 451.42 124.33 449.36 120.87 447.14 C 121.93 445.44 122.99 443.75 124.06 442.07 C 127.19 444.02 130.31 445.99 133.44 447.96 C 134.09 446.91 134.75 445.86 135.41 444.83 C 132.29 442.85 129.16 440.90 126.04 438.93 C 126.86 437.57 127.67 436.21 128.49 434.86 C 132.01 436.75 135.31 439.01 138.72 441.09 C 139.37 440.04 140.03 438.99 140.69 437.94 C 136.08 435.04 131.47 432.15 126.86 429.27 C 122.96 435.48 119.06 441.70 115.17 447.93 M 362.93 436.96 C 360.93 440.01 362.80 444.66 366.35 445.48 C 370.36 446.43 373.99 443.56 377.95 443.69 C 380.66 445.15 378.87 448.73 376.64 449.64 C 374.53 451.19 372.13 449.88 370.31 448.60 C 369.21 449.46 368.13 450.33 367.05 451.20 C 368.96 452.93 371.21 454.90 374.01 454.47 C 377.53 453.91 380.90 451.81 382.83 448.80 C 385.06 445.15 382.45 439.59 378.15 439.20 C 374.33 438.70 370.85 441.63 367.12 441.05 C 364.65 439.53 367.47 436.87 369.20 436.18 C 370.80 435.09 372.39 436.38 373.86 437.02 C 375.02 436.13 376.18 435.23 377.33 434.33 C 373.24 429.51 365.83 432.29 362.93 436.96 M 339.59 448.20 C 342.80 454.81 346.05 461.39 349.26 468.00 C 354.28 465.57 359.28 463.10 364.29 460.65 C 363.73 459.53 363.17 458.42 362.62 457.32 C 358.96 459.14 355.28 460.93 351.61 462.73 C 350.72 460.93 349.85 459.13 348.98 457.33 C 352.29 455.72 355.59 454.09 358.91 452.49 C 358.38 451.37 357.84 450.24 357.32 449.13 C 353.99 450.75 350.68 452.40 347.34 454.00 C 346.62 452.53 345.90 451.07 345.19 449.62 C 348.75 447.86 352.32 446.13 355.88 444.38 C 355.50 443.55 354.74 441.90 354.36 441.07 C 349.37 443.31 344.52 445.84 339.59 448.20 M 158.34 449.50 C 153.51 451.49 150.88 456.99 150.78 462.00 C 150.79 470.00 161.85 474.93 167.91 469.83 C 171.24 466.92 173.10 462.31 172.69 457.90 C 171.98 451.44 164.23 447.47 158.34 449.50 M 316.64 457.01 C 319.19 463.92 321.51 470.93 324.25 477.77 C 325.59 477.24 326.92 476.71 328.27 476.19 C 327.22 473.27 326.16 470.36 325.12 467.45 C 330.14 465.16 333.78 470.36 337.55 472.77 C 339.28 472.21 340.99 471.63 342.71 471.04 C 339.58 468.51 336.53 465.62 332.55 464.49 C 337.75 462.00 336.75 453.45 330.93 452.68 C 325.92 452.97 321.38 455.53 316.64 457.01 M 175.45 477.36 C 176.84 477.79 178.24 478.22 179.64 478.66 C 180.56 475.66 181.44 472.66 182.32 469.65 C 185.29 470.52 188.27 471.39 191.24 472.25 C 191.51 471.02 191.78 469.80 192.05 468.58 C 189.13 467.80 186.24 466.95 183.35 466.10 C 183.86 464.41 184.37 462.73 184.89 461.05 C 188.29 462.08 191.70 463.08 195.11 464.06 C 195.43 462.86 195.75 461.66 196.08 460.47 C 191.27 459.08 186.47 457.65 181.66 456.25 C 179.58 463.28 177.52 470.33 175.45 477.36 M 294.25 462.82 C 295.94 469.91 297.72 476.98 299.38 484.08 C 300.83 483.79 302.27 483.51 303.72 483.23 C 303.07 480.52 302.42 477.81 301.77 475.11 C 304.61 474.31 307.73 473.96 310.19 472.20 C 314.42 468.89 312.32 460.94 306.95 460.26 C 302.60 460.32 298.47 461.96 294.25 462.82 M 212.31 464.02 C 212.16 465.23 212.02 466.45 211.87 467.68 C 214.02 467.97 216.17 468.27 218.32 468.58 C 217.50 474.61 216.67 480.65 215.88 486.70 C 217.33 486.89 218.78 487.10 220.23 487.31 C 221.07 481.27 221.87 475.22 222.69 469.19 C 224.84 469.45 226.99 469.73 229.15 470.01 C 229.29 469.10 229.56 467.29 229.70 466.38 C 223.91 465.53 218.11 464.76 212.31 464.02 M 259.74 467.11 C 260.31 474.40 260.94 481.68 261.46 488.98 C 267.04 488.71 272.59 488.15 278.15 487.73 C 278.06 486.50 277.97 485.27 277.89 484.05 C 273.78 484.35 269.67 484.75 265.55 484.95 C 265.42 482.98 265.27 481.01 265.13 479.04 C 268.81 478.74 272.48 478.45 276.16 478.15 C 276.09 477.23 275.94 475.39 275.87 474.47 C 272.18 474.76 268.50 475.06 264.81 475.34 C 264.69 473.71 264.57 472.08 264.45 470.47 C 268.41 470.15 272.37 469.83 276.33 469.49 C 276.25 468.57 276.09 466.72 276.01 465.79 C 270.58 466.23 265.16 466.65 259.74 467.11 M 235.17 466.79 C 234.95 474.14 234.67 481.48 234.54 488.84 C 236.00 488.86 237.47 488.89 238.93 488.93 C 239.02 485.72 239.12 482.51 239.22 479.31 C 242.11 479.39 245.00 479.47 247.90 479.54 C 247.83 482.76 247.74 485.98 247.65 489.20 C 249.12 489.23 250.58 489.27 252.05 489.32 C 252.28 481.98 252.49 474.64 252.71 467.30 C 251.24 467.26 249.77 467.22 248.30 467.19 C 248.21 470.07 248.13 472.96 248.04 475.85 C 245.13 475.77 242.23 475.68 239.33 475.60 C 239.41 472.71 239.50 469.81 239.58 466.93 C 238.10 466.87 236.63 466.83 235.17 466.79 Z" />
<path fill="#0b6b04" opacity="1.00" d=" M 283.37 19.48 C 286.48 17.69 291.45 19.21 292.16 23.00 C 292.84 26.36 292.26 30.38 289.63 32.79 C 286.61 35.37 281.19 33.74 280.29 29.79 C 279.50 26.22 280.26 21.76 283.37 19.48 Z" />
<path fill="#0b6b04" opacity="1.00" d=" M 311.32 24.08 C 313.75 24.79 316.31 25.23 318.54 26.48 C 320.38 27.86 319.27 31.07 317.08 31.34 C 314.62 31.05 312.25 30.26 309.88 29.60 C 310.34 27.75 310.82 25.91 311.32 24.08 Z" />
<path fill="#0b6b04" opacity="1.00" d=" M 117.34 57.32 C 119.70 56.05 122.30 59.65 120.43 61.51 C 118.74 63.24 116.62 64.46 114.67 65.87 C 113.59 64.30 112.51 62.74 111.45 61.16 C 113.39 59.85 115.22 58.34 117.34 57.32 Z" />
<path fill="#0b6b04" opacity="1.00" d=" M 89.66 79.19 C 92.08 77.25 94.96 73.57 98.41 75.55 C 101.16 77.34 103.66 79.96 104.60 83.17 C 104.93 86.39 101.47 88.12 99.61 90.20 C 96.18 86.64 92.97 82.86 89.66 79.19 Z" />
<path fill="#0b6b04" opacity="1.00" d=" M 266.68 130.02 C 293.08 128.19 319.88 128.22 345.86 133.74 C 365.19 137.63 384.26 144.30 400.60 155.53 C 413.60 164.49 424.51 176.90 430.29 191.71 C 436.82 207.99 436.61 226.57 431.15 243.11 C 423.17 266.61 406.98 286.31 389.00 302.97 C 368.74 321.36 345.59 336.54 320.80 348.11 C 290.88 362.21 257.91 368.78 225.06 371.00 C 198.86 372.33 172.27 371.78 146.67 365.60 C 125.14 360.63 103.88 351.71 87.67 336.34 C 73.37 322.55 64.17 303.03 64.57 283.00 C 64.04 261.55 74.05 241.42 86.71 224.68 C 106.47 199.20 132.80 179.59 160.69 163.81 C 185.71 149.93 212.58 138.77 240.86 133.78 C 249.37 131.99 258.06 131.17 266.68 130.02 M 281.95 137.78 C 257.59 138.90 233.27 142.89 210.16 150.83 C 207.72 151.72 205.19 152.47 202.88 153.67 C 200.43 154.54 197.94 155.33 195.62 156.50 C 183.02 161.62 170.78 167.77 159.20 174.85 C 155.22 177.07 151.27 179.39 147.55 182.03 C 144.64 183.84 141.65 185.60 139.03 187.83 C 127.85 195.52 117.37 204.27 107.80 213.88 C 104.64 217.19 101.06 220.27 98.63 224.18 C 95.50 227.44 92.61 231.00 90.25 234.86 C 87.70 237.90 85.81 241.41 83.81 244.83 C 80.21 250.86 78.78 257.83 76.10 264.27 C 73.81 269.16 73.58 274.68 72.98 279.97 C 72.33 296.99 78.81 314.08 90.35 326.57 C 103.17 340.70 120.94 349.07 138.85 354.72 C 142.04 355.44 145.13 356.72 148.44 356.84 C 150.25 357.48 152.10 357.99 153.98 358.40 C 179.25 363.45 205.29 364.13 230.90 361.82 C 236.25 361.56 241.66 361.23 246.86 359.85 C 251.32 359.74 255.71 358.80 260.08 357.97 C 281.24 354.09 302.13 347.89 321.35 338.11 C 324.78 336.75 327.96 334.84 331.23 333.15 C 350.98 322.32 369.85 309.49 385.96 293.68 C 388.31 292.06 390.13 289.79 391.99 287.65 C 392.11 287.63 392.34 287.60 392.46 287.58 C 394.10 285.76 395.75 283.94 397.37 282.10 C 409.28 268.71 419.36 253.28 424.33 235.91 C 424.62 234.45 424.92 232.98 425.24 231.52 C 425.84 228.60 426.29 225.65 426.67 222.69 C 427.53 209.32 424.04 195.80 416.97 184.44 C 415.21 181.81 413.35 179.25 411.34 176.80 C 410.41 175.72 409.48 174.65 408.56 173.58 C 393.92 158.66 374.27 149.86 354.29 144.64 C 352.86 144.28 351.46 143.62 349.96 143.65 L 349.18 143.89 L 349.10 143.35 C 346.23 142.51 343.22 142.26 340.34 141.47 C 325.19 138.74 309.78 137.19 294.37 137.50 C 292.45 137.49 290.52 137.49 288.60 137.46 C 286.39 137.54 284.13 137.36 281.95 137.78 Z" />
<path fill="#0b6b04" opacity="1.00" d=" M 456.85 159.59 C 459.74 159.42 462.64 159.26 465.54 159.12 C 463.41 161.16 461.28 163.19 459.12 165.21 C 458.33 163.34 457.57 161.47 456.85 159.59 Z" />
<path fill="#0b6b04" opacity="1.00" d=" M 32.15 163.08 C 33.61 161.59 36.24 162.24 37.18 164.00 C 37.42 166.45 36.26 168.72 35.53 170.99 C 33.51 170.24 31.51 169.47 29.50 168.70 C 30.30 166.80 30.86 164.73 32.15 163.08 Z" />
<path fill="#0b6b04" opacity="1.00" d=" M 193.65 171.46 C 212.60 166.02 232.28 163.17 252.00 162.87 C 254.07 162.84 256.14 162.81 258.22 162.79 C 260.09 162.78 261.97 162.81 263.85 162.88 C 277.19 163.05 290.46 164.41 303.58 166.77 C 306.47 167.25 309.31 167.97 312.16 168.64 C 313.60 168.96 315.04 169.29 316.49 169.62 C 334.70 174.13 352.39 181.18 368.11 191.50 C 369.61 192.51 371.07 193.57 372.53 194.64 C 374.96 196.46 377.34 198.34 379.61 200.36 C 389.03 208.64 396.93 219.04 400.67 231.13 C 401.32 233.56 401.84 236.03 402.23 238.53 C 402.41 239.87 402.55 241.21 402.67 242.56 C 403.51 258.07 396.22 273.00 385.62 283.97 C 383.70 285.97 381.72 287.92 379.66 289.79 C 377.14 291.90 374.62 294.02 371.97 295.97 C 349.62 311.83 322.89 320.38 296.04 324.65 C 267.84 328.92 238.90 328.44 210.93 322.84 C 207.22 322.19 203.56 321.32 199.91 320.40 C 197.51 319.77 195.13 319.12 192.74 318.50 C 186.59 316.60 180.50 314.53 174.55 312.08 C 173.06 311.47 171.57 310.86 170.10 310.23 C 168.71 309.60 167.32 308.99 165.96 308.33 C 160.94 305.90 156.06 303.19 151.32 300.25 C 150.12 299.47 148.93 298.70 147.75 297.90 C 146.79 297.23 145.83 296.57 144.88 295.89 C 141.79 293.66 138.80 291.28 135.99 288.71 C 135.30 288.07 134.63 287.42 133.96 286.77 C 133.25 286.06 132.55 285.35 131.86 284.63 C 129.68 282.32 127.65 279.88 125.71 277.38 C 125.08 276.55 124.46 275.70 123.86 274.85 C 123.20 273.88 122.57 272.90 121.96 271.91 C 120.62 269.64 119.44 267.29 118.37 264.89 C 117.93 263.89 117.53 262.87 117.14 261.85 C 116.70 260.54 116.30 259.22 115.93 257.89 C 114.62 253.41 114.10 248.73 114.16 244.06 C 114.21 241.79 114.36 239.52 114.57 237.27 C 117.42 223.30 125.53 211.01 135.91 201.45 C 139.69 198.07 143.75 195.04 147.86 192.09 C 158.13 185.28 169.31 180.03 180.74 175.51 C 182.88 174.76 185.04 174.07 187.21 173.39 C 189.35 172.72 191.49 172.07 193.65 171.46 M 130.17 211.19 C 130.18 233.94 130.21 256.69 130.15 279.43 C 135.05 279.38 139.95 279.44 144.85 279.45 C 144.78 272.57 144.79 265.68 144.80 258.80 C 152.44 258.49 160.47 259.86 167.73 256.81 C 173.97 254.54 179.09 249.29 181.11 242.95 C 184.17 233.93 181.83 222.84 174.35 216.65 C 170.03 213.21 164.53 211.19 158.99 211.26 C 149.38 211.13 139.77 211.24 130.17 211.19 M 190.81 211.21 C 190.82 233.95 190.82 256.69 190.83 279.43 C 199.21 279.43 207.60 279.47 215.98 279.43 C 225.56 279.47 235.44 276.11 242.17 269.11 C 254.59 256.60 254.71 234.17 242.43 221.52 C 236.09 215.06 227.09 211.14 218.01 211.24 C 208.94 211.16 199.88 211.22 190.81 211.21 M 262.18 211.18 C 262.21 233.92 262.29 256.66 262.14 279.40 C 278.90 279.43 295.65 279.37 312.41 279.46 C 312.37 274.94 312.40 270.43 312.38 265.91 C 300.52 266.07 288.66 266.04 276.80 266.09 C 276.78 261.29 276.79 256.50 276.78 251.71 C 287.15 251.67 297.52 251.70 307.89 251.76 C 307.87 247.26 307.88 242.75 307.90 238.25 C 297.53 238.32 287.16 238.25 276.79 238.29 C 276.78 233.73 276.78 229.17 276.78 224.61 C 288.46 224.58 300.14 224.60 311.82 224.61 C 311.80 220.14 311.80 215.67 311.84 211.19 C 295.29 211.20 278.73 211.23 262.18 211.18 M 317.50 279.45 C 322.44 279.44 327.37 279.38 332.31 279.46 C 334.36 274.44 336.42 269.41 338.21 264.29 C 347.54 264.15 356.87 264.26 366.21 264.23 C 368.15 269.29 370.18 274.31 372.05 279.40 C 377.20 279.45 382.35 279.42 387.50 279.42 C 377.81 256.61 368.69 233.54 359.11 210.67 C 354.67 210.67 350.24 210.66 345.80 210.67 C 336.28 233.56 326.98 256.54 317.50 279.45 Z" />
<path fill="#0b6b04" opacity="1.00" d=" M 21.59 193.92 C 22.53 191.45 22.50 187.04 26.03 186.92 C 30.58 187.34 28.43 192.69 27.91 195.54 C 25.80 195.01 23.69 194.48 21.59 193.92 Z" />
<path fill="#0b6b04" opacity="1.00" d=" M 144.79 224.67 C 151.16 225.20 158.35 223.15 163.96 227.06 C 169.89 231.60 168.10 242.67 160.76 244.82 C 155.56 246.07 150.09 245.13 144.78 245.42 C 144.78 238.50 144.78 231.59 144.79 224.67 Z" />
<path fill="#0b6b04" opacity="1.00" d=" M 205.56 224.67 C 212.70 224.95 220.45 223.51 226.89 227.40 C 239.60 234.72 239.45 256.52 226.40 263.43 C 219.96 266.74 212.52 265.51 205.57 265.77 C 205.56 252.07 205.56 238.37 205.56 224.67 Z" />
<path fill="#0b6b04" opacity="1.00" d=" M 343.61 250.68 C 346.55 243.46 349.39 236.19 352.19 228.91 C 355.27 236.11 357.91 243.48 360.92 250.70 C 355.15 250.73 349.38 250.75 343.61 250.68 Z" />
<path fill="#0b6b04" opacity="1.00" d=" M 18.48 293.96 C 18.98 291.80 22.08 290.71 23.60 292.49 C 24.91 294.37 25.03 296.76 25.58 298.93 C 23.47 299.33 21.35 299.72 19.24 300.11 C 18.92 298.07 18.37 296.04 18.48 293.96 Z" />
<path fill="#0b6b04" opacity="1.00" d=" M 50.34 359.48 C 54.43 356.89 59.83 360.28 59.58 365.00 C 58.89 368.97 54.81 371.51 51.08 372.13 C 47.26 372.65 43.99 368.61 44.88 364.97 C 45.59 362.33 47.96 360.56 50.34 359.48 Z" />
<path fill="#0b6b04" opacity="1.00" d=" M 394.58 417.85 C 396.80 416.17 398.94 413.25 402.05 413.77 C 405.30 415.01 407.70 417.99 409.16 421.07 C 410.35 424.61 406.37 426.70 404.28 428.83 C 401.04 425.18 397.80 421.52 394.58 417.85 Z" />
<path fill="#0b6b04" opacity="1.00" d=" M 160.22 453.29 C 163.85 451.75 168.88 454.85 168.32 459.03 C 168.02 462.10 166.71 465.34 164.07 467.13 C 160.78 469.24 155.77 466.83 155.39 462.93 C 155.08 459.23 156.91 455.12 160.22 453.29 Z" />
<path fill="#0b6b04" opacity="1.00" d=" M 322.06 459.00 C 324.35 458.16 326.61 457.17 329.02 456.73 C 331.43 456.55 332.67 460.35 330.60 461.57 C 328.54 462.81 326.20 463.44 323.96 464.28 C 323.32 462.51 322.69 460.76 322.06 459.00 Z" />
<path fill="#0b6b04" opacity="1.00" d=" M 299.37 465.42 C 301.43 464.97 303.53 464.05 305.68 464.39 C 307.94 464.81 308.81 468.47 306.68 469.62 C 304.92 470.66 302.84 470.97 300.90 471.54 C 300.40 469.49 299.88 467.45 299.37 465.42 Z" />
</g>
<g id="#fcd116ff">
<path fill="#fcd116" opacity="1.00" d=" M 237.89 12.68 C 239.27 12.58 240.65 12.49 242.04 12.39 C 242.57 19.79 243.10 27.18 243.63 34.58 C 242.12 34.68 240.61 34.78 239.11 34.89 C 235.80 30.28 232.51 25.66 229.18 21.07 C 229.50 25.85 229.81 30.63 230.24 35.40 C 228.84 35.57 227.45 35.73 226.06 35.89 C 225.52 28.47 224.98 21.06 224.46 13.64 C 225.91 13.54 227.37 13.45 228.82 13.36 C 232.17 18.07 235.54 22.77 238.92 27.45 C 238.60 22.53 238.23 17.61 237.89 12.68 Z" />
<path fill="#fcd116" opacity="1.00" d=" M 252.96 12.35 C 258.04 12.54 263.12 12.75 268.21 12.96 C 268.17 13.89 268.11 15.77 268.08 16.70 C 264.48 16.57 260.88 16.43 257.29 16.28 C 257.22 18.05 257.15 19.82 257.09 21.59 C 260.18 21.71 263.28 21.83 266.37 21.96 C 266.34 22.89 266.27 24.77 266.23 25.70 C 263.13 25.59 260.03 25.47 256.94 25.34 C 256.78 28.48 256.64 31.62 256.53 34.76 C 255.04 34.71 253.55 34.66 252.07 34.61 C 252.34 27.19 252.65 19.77 252.96 12.35 Z" />
<path fill="#fcd116" opacity="1.00" d=" M 197.58 17.94 C 202.98 16.93 208.39 15.89 213.80 14.88 C 213.98 15.79 214.34 17.62 214.52 18.53 C 210.57 19.32 206.62 20.05 202.66 20.80 C 202.97 22.42 203.27 24.04 203.58 25.66 C 207.25 24.98 210.91 24.29 214.57 23.58 C 214.82 24.81 215.07 26.04 215.32 27.27 C 211.62 27.97 207.91 28.63 204.24 29.45 C 204.65 31.40 205.07 33.35 205.49 35.30 C 209.53 34.50 213.59 33.73 217.65 32.99 C 217.87 34.22 218.09 35.44 218.32 36.67 C 212.78 37.71 207.25 38.79 201.71 39.80 C 200.35 32.51 198.94 25.23 197.58 17.94 Z" />
<path fill="#fcd116" opacity="1.00" d=" M 282.32 15.42 C 287.33 13.83 293.95 15.69 296.11 20.84 C 297.82 25.21 297.10 30.52 294.33 34.30 C 289.40 40.84 276.96 38.15 275.61 29.91 C 274.62 24.44 276.65 17.47 282.32 15.42 M 283.37 19.48 C 280.26 21.76 279.50 26.22 280.29 29.79 C 281.19 33.74 286.61 35.37 289.63 32.79 C 292.26 30.38 292.84 26.36 292.16 23.00 C 291.45 19.21 286.48 17.69 283.37 19.48 Z" />
<path fill="#fcd116" opacity="1.00" d=" M 308.11 19.23 C 312.56 20.68 317.28 21.45 321.49 23.55 C 325.11 25.60 324.83 31.29 321.62 33.59 C 320.24 34.71 318.38 34.59 316.74 34.82 C 319.23 38.13 320.02 42.24 321.12 46.14 C 319.42 45.66 317.72 45.19 316.03 44.72 C 314.16 40.51 314.39 33.95 308.87 32.78 C 307.97 35.80 307.10 38.82 306.24 41.85 C 304.81 41.45 303.38 41.05 301.95 40.65 C 303.95 33.49 306.04 26.36 308.11 19.23 M 311.32 24.08 C 310.82 25.91 310.34 27.75 309.88 29.60 C 312.25 30.26 314.62 31.05 317.08 31.34 C 319.27 31.07 320.38 27.86 318.54 26.48 C 316.31 25.23 313.75 24.79 311.32 24.08 Z" />
<path fill="#fcd116" opacity="1.00" d=" M 159.56 31.50 C 163.28 26.53 172.20 24.47 176.14 30.29 C 174.89 31.04 173.65 31.79 172.41 32.53 C 169.13 29.14 162.76 31.35 162.17 35.96 C 161.98 39.71 163.80 43.93 167.30 45.64 C 170.72 47.00 174.00 44.54 176.00 41.96 C 175.64 41.06 175.28 40.16 174.92 39.26 C 173.29 39.87 171.67 40.49 170.04 41.10 C 169.67 39.88 169.30 38.67 168.94 37.45 C 171.91 36.39 174.85 35.27 177.79 34.12 C 178.82 36.85 180.04 39.50 180.86 42.30 C 178.02 48.28 169.58 52.12 163.54 48.53 C 158.34 44.95 155.71 36.94 159.56 31.50 Z" />
<path fill="#fcd116" opacity="1.00" d=" M 335.07 32.10 C 341.18 27.38 351.75 32.77 350.65 40.76 C 349.18 40.53 347.70 40.30 346.24 40.06 C 346.40 36.47 342.95 33.34 339.41 34.50 C 335.76 36.04 334.29 40.39 333.88 44.04 C 333.44 47.28 337.06 49.87 340.03 49.08 C 341.41 48.50 342.47 47.42 343.64 46.52 C 344.73 47.55 345.83 48.58 346.93 49.61 C 345.39 50.89 343.95 52.48 341.94 52.99 C 336.62 54.32 330.29 50.59 329.57 44.97 C 328.97 40.13 331.36 35.15 335.07 32.10 Z" />
<path fill="#fcd116" opacity="1.00" d=" M 141.50 38.53 C 142.83 37.85 144.16 37.16 145.50 36.49 C 147.89 41.40 150.85 46.03 152.95 51.08 C 154.41 54.05 153.00 57.63 150.30 59.32 C 147.08 61.69 141.89 63.67 138.67 60.28 C 134.88 55.65 132.76 49.93 129.77 44.79 C 131.08 44.08 132.40 43.38 133.72 42.69 C 136.18 47.09 138.29 51.71 140.96 56.00 C 143.11 60.10 150.67 56.58 148.63 52.30 C 146.59 47.55 143.84 43.14 141.50 38.53 Z" />
<path fill="#fcd116" opacity="1.00" d=" M 350.75 59.11 C 354.41 52.66 358.03 46.18 361.77 39.78 C 366.54 42.51 371.35 45.19 376.10 47.96 C 375.47 49.03 374.84 50.10 374.22 51.18 C 370.73 49.20 367.25 47.20 363.75 45.24 C 362.95 46.69 362.15 48.15 361.35 49.62 C 364.61 51.40 367.83 53.24 371.05 55.09 C 370.43 56.17 369.81 57.26 369.19 58.34 C 365.94 56.51 362.71 54.64 359.44 52.84 C 358.45 54.58 357.46 56.32 356.48 58.06 C 360.08 60.12 363.69 62.16 367.29 64.22 C 366.65 65.30 366.01 66.38 365.38 67.47 C 360.52 64.65 355.60 61.93 350.75 59.11 Z" />
<path fill="#fcd116" opacity="1.00" d=" M 105.63 60.72 C 109.43 58.15 112.97 55.12 117.10 53.10 C 120.92 51.33 125.36 55.05 125.30 59.00 C 125.40 60.87 124.08 62.32 123.12 63.78 C 127.28 63.93 131.02 65.88 134.76 67.49 C 133.28 68.53 131.80 69.56 130.31 70.58 C 125.96 69.30 120.88 65.00 116.65 68.72 C 118.47 71.28 120.27 73.85 122.00 76.47 C 120.77 77.28 119.55 78.10 118.32 78.92 C 114.12 72.83 109.88 66.77 105.63 60.72 M 117.34 57.32 C 115.22 58.34 113.39 59.85 111.45 61.16 C 112.51 62.74 113.59 64.30 114.67 65.87 C 116.62 64.46 118.74 63.24 120.43 61.51 C 122.30 59.65 119.70 56.05 117.34 57.32 Z" />
<path fill="#fcd116" opacity="1.00" d=" M 371.82 71.21 C 376.28 65.32 380.65 59.37 385.09 53.46 C 386.90 54.81 388.70 56.17 390.47 57.57 C 388.49 62.34 386.60 67.15 384.74 71.97 C 388.84 68.80 392.84 65.50 396.91 62.28 C 398.70 63.62 400.49 64.96 402.29 66.30 C 397.89 72.27 393.44 78.20 389.00 84.14 C 387.89 83.33 386.78 82.51 385.67 81.69 C 388.98 77.14 392.45 72.70 395.71 68.11 C 391.04 71.60 386.66 75.46 382.09 79.08 C 381.06 78.11 379.52 77.48 378.90 76.20 C 380.65 70.96 383.38 66.09 384.91 60.77 C 381.51 65.03 378.38 69.51 375.07 73.84 C 373.98 72.96 372.90 72.09 371.82 71.21 Z" />
<path fill="#fcd116" opacity="1.00" d=" M 83.86 79.39 C 87.23 76.66 90.06 73.10 94.04 71.23 C 98.88 69.38 103.60 73.01 106.32 76.73 C 108.83 79.86 109.89 84.77 107.09 88.08 C 104.62 90.93 101.70 93.39 98.79 95.79 C 93.51 90.71 88.85 84.83 83.86 79.39 M 89.66 79.19 C 92.97 82.86 96.18 86.64 99.61 90.20 C 101.47 88.12 104.93 86.39 104.60 83.17 C 103.66 79.96 101.16 77.34 98.41 75.55 C 94.96 73.57 92.08 77.25 89.66 79.19 Z" />
<path fill="#fcd116" opacity="1.00" d=" M 395.15 89.58 C 400.29 84.21 405.42 78.83 410.59 73.50 C 414.52 77.33 418.51 81.12 422.46 84.94 C 421.59 85.84 420.73 86.74 419.88 87.64 C 416.97 84.87 414.08 82.08 411.18 79.30 C 410.04 80.50 408.90 81.69 407.76 82.89 C 410.46 85.48 413.16 88.07 415.85 90.67 C 414.95 91.55 414.06 92.43 413.17 93.31 C 410.51 90.73 407.84 88.16 405.15 85.61 C 403.76 87.05 402.36 88.50 400.98 89.95 C 403.96 92.83 406.94 95.71 409.96 98.55 C 409.00 99.27 408.35 100.84 407.11 100.89 C 402.94 97.32 399.19 93.29 395.15 89.58 Z" />
<path fill="#fcd116" opacity="1.00" d=" M 412.48 106.79 C 418.19 102.03 423.93 97.31 429.68 92.59 C 430.58 93.72 431.49 94.84 432.41 95.97 C 430.55 101.44 428.62 106.89 426.82 112.38 C 430.72 109.32 434.39 105.98 438.38 103.03 C 439.20 104.10 440.02 105.16 440.85 106.23 C 435.14 110.94 429.43 115.64 423.74 120.37 C 422.76 119.21 421.80 118.06 420.83 116.91 C 422.65 111.54 424.51 106.20 426.27 100.81 C 422.52 103.81 418.85 106.92 415.13 109.97 C 414.25 108.91 413.36 107.85 412.48 106.79 Z" />
<path fill="#fcd116" opacity="1.00" d=" M 58.30 108.38 C 61.25 104.67 64.18 100.95 67.11 97.23 C 68.09 97.98 69.07 98.73 70.06 99.48 C 67.62 102.69 65.09 105.83 62.61 109.01 C 63.92 110.02 65.23 111.04 66.55 112.05 C 68.84 109.09 71.15 106.14 73.50 103.22 C 74.44 104.05 75.39 104.88 76.34 105.71 C 74.01 108.56 71.74 111.47 69.46 114.36 C 71.03 115.61 72.60 116.85 74.18 118.10 C 76.82 114.90 79.33 111.60 81.91 108.36 C 82.89 109.13 83.87 109.90 84.84 110.67 C 81.36 115.10 77.89 119.54 74.39 123.96 C 68.91 119.61 63.38 115.33 57.89 110.99 C 56.36 110.35 57.84 109.12 58.30 108.38 Z" />
<path fill="#fcd116" opacity="1.00" d=" M 443.10 115.87 C 444.28 115.59 446.01 113.03 446.94 114.93 C 449.97 119.49 452.90 124.13 455.91 128.71 C 454.86 129.38 453.81 130.06 452.77 130.74 C 451.57 128.90 450.37 127.06 449.17 125.22 C 444.01 128.57 438.84 131.94 433.69 135.31 C 432.86 134.07 432.02 132.83 431.20 131.60 C 436.37 128.20 441.57 124.86 446.73 121.45 C 445.51 119.60 444.30 117.74 443.10 115.87 Z" />
<path fill="#fcd116" opacity="1.00" d=" M 48.55 122.70 C 49.26 121.49 49.98 120.29 50.69 119.09 C 57.01 122.99 63.35 126.86 69.67 130.75 C 68.90 132.02 68.13 133.29 67.37 134.56 C 61.68 134.64 56.00 134.58 50.31 134.64 C 54.40 137.26 58.63 139.65 62.66 142.37 C 61.90 143.51 61.15 144.64 60.39 145.78 C 54.11 141.86 47.77 138.03 41.48 134.13 C 42.24 132.89 43.01 131.66 43.77 130.42 C 49.56 130.43 55.34 130.44 61.13 130.42 C 56.97 127.80 52.77 125.23 48.55 122.70 Z" />
<path fill="#fcd116" opacity="1.00" d=" M 281.95 137.78 C 284.13 137.36 286.39 137.54 288.60 137.46 C 278.46 145.90 268.33 154.33 258.22 162.79 C 256.14 162.81 254.07 162.84 252.00 162.87 C 262.02 154.55 271.97 146.14 281.95 137.78 Z" />
<path fill="#fcd116" opacity="1.00" d=" M 294.37 137.50 C 309.78 137.19 325.19 138.74 340.34 141.47 C 328.01 149.79 315.70 158.15 303.58 166.77 C 290.46 164.41 277.19 163.05 263.85 162.88 C 274.06 154.46 284.31 146.08 294.37 137.50 Z" />
<path fill="#fcd116" opacity="1.00" d=" M 34.76 147.15 C 35.42 145.83 36.08 144.50 36.74 143.19 C 43.38 146.48 50.00 149.79 56.65 153.07 C 56.00 154.41 55.35 155.75 54.71 157.09 C 48.05 153.80 41.38 150.53 34.76 147.15 Z" />
<path fill="#fcd116" opacity="1.00" d=" M 312.16 168.64 C 324.43 160.28 337.02 152.40 349.18 143.89 L 349.96 143.65 C 351.46 143.62 352.86 144.28 354.29 144.64 C 341.64 152.89 329.00 161.17 316.49 169.62 C 315.04 169.29 313.60 168.96 312.16 168.64 Z" />
<path fill="#fcd116" opacity="1.00" d=" M 202.88 153.67 C 205.19 152.47 207.72 151.72 210.16 150.83 C 204.71 157.75 199.07 164.51 193.65 171.46 C 191.49 172.07 189.35 172.72 187.21 173.39 C 192.49 166.86 197.59 160.19 202.88 153.67 Z" />
<path fill="#fcd116" opacity="1.00" d=" M 445.55 155.76 C 453.45 155.45 461.36 155.26 469.26 154.87 C 469.93 156.30 470.60 157.74 471.28 159.17 C 465.70 164.93 460.02 170.59 454.31 176.23 C 453.68 174.74 453.05 173.26 452.42 171.78 C 453.70 170.52 454.98 169.26 456.27 168.00 C 455.10 165.30 453.93 162.59 452.78 159.88 C 450.94 159.93 449.11 159.99 447.29 160.04 C 446.71 158.61 446.12 157.18 445.55 155.76 M 456.85 159.59 C 457.57 161.47 458.33 163.34 459.12 165.21 C 461.28 163.19 463.41 161.16 465.54 159.12 C 462.64 159.26 459.74 159.42 456.85 159.59 Z" />
<path fill="#fcd116" opacity="1.00" d=" M 159.20 174.85 C 170.78 167.77 183.02 161.62 195.62 156.50 C 190.46 162.68 185.59 169.10 180.74 175.51 C 169.31 180.03 158.13 185.28 147.86 192.09 C 151.78 186.43 155.37 180.56 159.20 174.85 Z" />
<path fill="#fcd116" opacity="1.00" d=" M 29.59 159.58 C 33.28 155.28 41.39 158.37 41.47 163.96 C 41.30 166.94 39.95 169.67 38.98 172.45 C 41.58 173.44 44.16 174.45 46.73 175.49 C 46.18 176.87 45.62 178.25 45.07 179.63 C 38.17 176.90 31.27 174.20 24.39 171.45 C 26.12 167.50 27.19 163.20 29.59 159.58 M 32.15 163.08 C 30.86 164.73 30.30 166.80 29.50 168.70 C 31.51 169.47 33.51 170.24 35.53 170.99 C 36.26 168.72 37.42 166.45 37.18 164.00 C 36.24 162.24 33.61 161.59 32.15 163.08 Z" />
<path fill="#fcd116" opacity="1.00" d=" M 368.95 191.88 C 382.24 185.98 395.33 179.62 408.56 173.58 C 409.48 174.65 410.41 175.72 411.34 176.80 C 398.41 182.77 385.43 188.63 372.53 194.64 C 371.07 193.57 369.61 192.51 368.11 191.50 L 368.95 191.88 Z" />
<path fill="#fcd116" opacity="1.00" d=" M 458.70 185.74 C 460.28 179.81 467.18 176.74 472.90 177.67 C 481.18 178.86 485.03 191.89 477.48 196.49 C 476.80 195.23 476.13 193.96 475.46 192.70 C 479.02 189.66 477.59 183.24 473.04 182.15 C 469.22 181.52 464.59 183.10 462.70 186.67 C 461.31 189.95 463.46 193.23 465.78 195.41 C 466.48 195.18 467.88 194.73 468.59 194.50 C 468.10 192.86 467.62 191.23 467.14 189.60 C 468.34 189.25 469.55 188.90 470.77 188.55 C 471.67 191.65 472.57 194.75 473.42 197.86 C 470.55 198.66 467.69 199.48 464.85 200.38 C 460.45 197.06 457.43 191.30 458.70 185.74 Z" />
<path fill="#fcd116" opacity="1.00" d=" M 20.37 185.39 C 22.96 180.35 31.45 181.84 32.82 187.10 C 33.44 190.30 32.14 193.47 31.41 196.54 C 34.10 197.29 36.80 198.01 39.49 198.74 C 39.12 200.16 38.75 201.58 38.38 203.01 C 31.18 201.17 24.01 199.20 16.85 197.21 C 18.02 193.27 18.69 189.16 20.37 185.39 M 21.59 193.92 C 23.69 194.48 25.80 195.01 27.91 195.54 C 28.43 192.69 30.58 187.34 26.03 186.92 C 22.50 187.04 22.53 191.45 21.59 193.92 Z" />
<path fill="#fcd116" opacity="1.00" d=" M 139.03 187.83 C 141.65 185.60 144.64 183.84 147.55 182.03 C 143.51 188.40 139.74 194.95 135.91 201.45 C 125.53 211.01 117.42 223.30 114.57 237.27 C 108.14 247.91 101.62 258.52 95.47 269.33 L 95.84 270.31 L 96.94 270.08 C 102.90 261.57 108.27 252.63 114.16 244.06 C 114.10 248.73 114.62 253.41 115.93 257.89 C 111.77 263.07 107.66 268.29 103.72 273.64 C 104.77 274.06 105.82 274.48 106.87 274.91 C 110.26 270.54 113.68 266.18 117.14 261.85 C 117.53 262.87 117.93 263.89 118.37 264.89 C 115.28 268.71 112.22 272.56 109.09 276.36 C 110.45 277.30 111.81 278.24 113.16 279.19 C 116.10 276.77 119.01 274.32 121.96 271.91 C 122.57 272.90 123.20 273.88 123.86 274.85 C 121.15 277.03 118.49 279.26 115.95 281.64 C 116.84 282.23 117.73 282.82 118.62 283.42 C 121.01 281.43 123.38 279.43 125.71 277.38 C 127.65 279.88 129.68 282.32 131.86 284.63 C 129.32 286.34 126.80 288.06 124.28 289.79 C 124.76 290.31 125.73 291.35 126.21 291.86 C 128.81 290.19 131.38 288.47 133.96 286.77 C 134.63 287.42 135.30 288.07 135.99 288.71 C 133.30 290.56 130.56 292.33 127.79 294.05 C 129.51 296.53 131.13 299.08 132.71 301.65 C 136.74 299.69 140.85 297.88 144.88 295.89 C 145.83 296.57 146.79 297.23 147.75 297.90 C 143.16 299.93 138.61 302.06 134.05 304.15 C 134.39 305.16 134.74 306.16 135.08 307.17 C 140.64 305.21 145.91 302.56 151.32 300.25 C 156.06 303.19 160.94 305.90 165.96 308.33 C 156.69 311.51 147.28 314.26 138.09 317.66 C 138.70 319.16 139.66 320.16 141.25 319.23 C 150.86 316.20 160.51 313.31 170.10 310.23 C 171.57 310.86 173.06 311.47 174.55 312.08 C 162.94 315.75 151.26 319.20 139.63 322.84 C 139.87 324.51 140.12 326.18 140.36 327.85 C 157.83 324.79 175.28 321.62 192.74 318.50 C 195.13 319.12 197.51 319.77 199.91 320.40 C 180.11 324.07 160.22 327.30 140.37 330.70 C 140.39 331.64 140.44 333.53 140.46 334.48 C 163.95 330.58 187.44 326.74 210.93 322.84 C 238.90 328.44 267.84 328.92 296.04 324.65 C 322.89 320.38 349.62 311.83 371.97 295.97 C 376.66 295.36 381.35 294.74 385.96 293.68 C 369.85 309.49 350.98 322.32 331.23 333.15 C 327.96 334.84 324.78 336.75 321.35 338.11 C 303.56 338.39 285.77 339.10 268.00 339.99 C 225.22 341.26 182.45 343.15 139.67 344.54 C 139.26 347.58 137.20 350.76 138.23 353.77 C 139.74 354.44 141.44 354.30 143.06 354.43 C 157.41 354.83 171.71 356.26 186.07 356.63 C 206.34 357.60 226.59 358.89 246.86 359.85 C 241.66 361.23 236.25 361.56 230.90 361.82 C 217.92 361.32 204.99 359.94 192.02 359.45 C 177.48 358.76 162.98 357.45 148.44 356.84 C 145.13 356.72 142.04 355.44 138.85 354.72 C 120.94 349.07 103.17 340.70 90.35 326.57 C 78.81 314.08 72.33 296.99 72.98 279.97 C 73.58 274.68 73.81 269.16 76.10 264.27 C 78.78 257.83 80.21 250.86 83.81 244.83 C 85.81 241.41 87.70 237.90 90.25 234.86 C 86.28 245.37 82.42 255.94 78.67 266.54 C 79.89 266.62 81.11 266.69 82.33 266.77 C 87.80 252.59 93.41 238.45 98.63 224.18 C 101.06 220.27 104.64 217.19 107.80 213.88 C 100.37 231.62 93.30 249.51 85.97 267.29 C 87.97 267.79 89.97 268.31 91.96 268.85 C 107.64 241.83 123.36 214.85 139.03 187.83 Z" />
<path fill="#fcd116" opacity="1.00" d=" M 379.61 200.36 C 391.98 194.86 404.46 189.60 416.97 184.44 C 424.04 195.80 427.53 209.32 426.67 222.69 C 417.97 225.40 409.36 228.40 400.67 231.13 C 396.93 219.04 389.03 208.64 379.61 200.36 Z" />
<path fill="#fcd116" opacity="1.00" d=" M 463.64 208.75 C 470.94 207.52 478.25 206.36 485.56 205.12 C 486.50 210.54 487.35 215.97 488.26 221.40 C 487.01 221.60 485.77 221.80 484.54 222.01 C 483.90 218.04 483.26 214.08 482.56 210.13 C 480.94 210.40 479.33 210.68 477.73 210.96 C 478.33 214.64 478.93 218.32 479.53 222.01 C 478.60 222.15 476.75 222.44 475.82 222.58 C 475.23 218.91 474.62 215.24 474.03 211.56 C 472.03 211.88 470.05 212.21 468.07 212.53 C 468.71 216.65 469.41 220.75 470.06 224.87 C 468.80 225.02 467.55 225.18 466.30 225.34 C 465.49 219.79 464.51 214.28 463.64 208.75 Z" />
<path fill="#fcd116" opacity="1.00" d=" M 13.97 211.73 C 14.23 210.26 14.49 208.79 14.75 207.33 C 22.02 208.58 29.25 210.03 36.54 211.17 C 36.34 212.67 36.14 214.16 35.94 215.66 C 28.61 214.38 21.30 213.02 13.97 211.73 Z" />
<path fill="#fcd116" opacity="1.00" d=" M 31.02 222.16 C 32.26 222.27 33.50 222.39 34.74 222.51 C 34.26 227.72 33.74 232.92 33.22 238.12 C 25.83 237.39 18.45 236.68 11.07 235.94 C 11.21 234.46 11.36 232.97 11.51 231.50 C 17.65 232.09 23.79 232.70 29.93 233.29 C 30.29 229.58 30.65 225.86 31.02 222.16 Z" />
<path fill="#fcd116" opacity="1.00" d=" M 402.23 238.53 C 409.94 236.31 417.53 233.71 425.24 231.52 C 424.92 232.98 424.62 234.45 424.33 235.91 C 417.13 238.19 409.86 240.26 402.67 242.56 C 402.55 241.21 402.41 239.87 402.23 238.53 Z" />
<path fill="#fcd116" opacity="1.00" d=" M 467.11 233.06 C 474.52 232.69 481.93 232.36 489.34 232.02 C 489.41 233.44 489.50 234.86 489.59 236.29 C 484.93 239.63 480.03 242.62 475.45 246.07 C 480.29 245.98 485.12 245.66 489.95 245.46 C 490.03 246.48 490.17 248.50 490.24 249.52 C 482.81 250.09 475.37 250.27 467.94 250.66 C 467.86 249.16 467.79 247.66 467.73 246.17 C 472.43 242.96 477.13 239.75 481.83 236.53 C 476.98 236.74 472.14 237.00 467.29 237.19 C 467.23 235.81 467.17 234.43 467.11 233.06 Z" />
<path fill="#fcd116" opacity="1.00" d=" M 10.57 246.09 C 17.99 246.16 25.41 246.32 32.83 246.40 C 32.82 247.89 32.80 249.38 32.78 250.88 C 25.36 250.78 17.93 250.66 10.51 250.54 C 10.53 249.05 10.55 247.57 10.57 246.09 Z" />
<path fill="#fcd116" opacity="1.00" d=" M 470.34 261.25 C 475.46 257.51 483.62 258.42 487.78 263.21 C 491.83 268.36 489.49 277.57 482.60 278.79 C 482.35 277.33 482.10 275.87 481.87 274.42 C 485.03 273.44 487.01 269.83 485.33 266.78 C 482.94 263.19 477.74 263.20 473.98 264.11 C 471.10 264.76 469.86 268.36 471.01 270.89 C 471.76 272.46 473.53 273.04 474.87 273.97 C 474.31 275.37 473.74 276.77 473.18 278.17 C 465.90 276.10 464.60 265.65 470.34 261.25 Z" />
<path fill="#fcd116" opacity="1.00" d=" M 10.57 260.90 C 17.98 260.37 25.38 259.79 32.79 259.30 C 32.89 260.78 32.99 262.26 33.08 263.74 C 29.86 263.98 26.63 264.23 23.40 264.46 C 23.61 267.39 23.82 270.32 24.04 273.24 C 27.28 273.00 30.51 272.76 33.75 272.54 C 33.85 274.01 33.96 275.49 34.06 276.97 C 26.66 277.53 19.26 278.07 11.86 278.59 C 11.75 277.11 11.65 275.63 11.54 274.15 C 14.46 273.93 17.38 273.72 20.29 273.50 C 20.10 270.56 19.86 267.62 19.56 264.70 C 16.67 264.94 13.78 265.17 10.89 265.37 C 10.78 263.87 10.68 262.39 10.57 260.90 Z" />
<path fill="#fcd116" opacity="1.00" d=" M 385.62 283.97 C 389.54 283.35 393.44 282.67 397.37 282.10 C 395.75 283.94 394.10 285.76 392.46 287.58 C 392.34 287.60 392.11 287.63 391.99 287.65 C 387.86 288.24 383.71 288.75 379.66 289.79 C 381.72 287.92 383.70 285.97 385.62 283.97 Z" />
<path fill="#fcd116" opacity="1.00" d=" M 14.42 293.03 C 14.53 287.18 23.25 284.86 26.60 289.41 C 28.37 291.98 28.54 295.25 29.25 298.20 C 31.99 297.69 34.73 297.16 37.46 296.63 C 37.75 298.09 38.03 299.55 38.32 301.02 C 31.08 302.45 23.82 303.74 16.60 305.26 C 15.69 301.22 14.64 297.17 14.42 293.03 M 18.48 293.96 C 18.37 296.04 18.92 298.07 19.24 300.11 C 21.35 299.72 23.47 299.33 25.58 298.93 C 25.03 296.76 24.91 294.37 23.60 292.49 C 22.08 290.71 18.98 291.80 18.48 293.96 Z" />
<path fill="#fcd116" opacity="1.00" d=" M 475.67 291.65 C 479.65 290.09 483.61 288.48 487.61 286.95 C 487.28 288.64 486.97 290.34 486.66 292.04 C 483.46 293.24 480.24 294.40 477.03 295.58 C 479.54 297.79 482.04 300.01 484.61 302.15 C 484.32 303.88 484.02 305.62 483.73 307.37 C 479.96 304.03 476.51 300.34 472.64 297.14 C 469.66 296.08 466.48 295.81 463.41 295.16 C 463.67 293.68 463.93 292.21 464.21 290.74 C 467.99 291.05 471.95 293.33 475.67 291.65 Z" />
<path fill="#fcd116" opacity="1.00" d=" M 35.43 331.53 C 38.33 330.20 41.96 332.83 41.54 336.01 C 41.41 339.52 36.64 341.38 34.17 338.91 C 31.75 336.92 32.48 332.59 35.43 331.53 Z" />
<path fill="#fcd116" opacity="1.00" d=" M 461.51 331.65 C 464.07 330.21 467.63 332.06 467.88 335.00 C 468.52 338.42 464.35 341.33 461.37 339.46 C 458.30 337.95 458.37 333.03 461.51 331.65 Z" />
<path fill="#fcd116" opacity="1.00" d=" M 435.87 365.54 C 438.50 360.29 441.68 355.34 444.57 350.24 C 445.37 350.71 446.96 351.65 447.76 352.13 C 446.67 353.97 445.58 355.82 444.47 357.66 C 449.66 360.92 455.05 363.84 460.30 366.98 C 459.57 368.25 458.83 369.51 458.11 370.79 C 452.82 367.73 447.55 364.64 442.26 361.60 C 441.17 363.46 440.08 365.33 439.00 367.19 C 437.95 366.64 436.91 366.08 435.87 365.54 Z" />
<path fill="#fcd116" opacity="1.00" d=" M 50.42 354.65 C 58.60 351.84 66.40 362.24 62.55 369.54 C 60.39 373.38 56.21 375.97 51.89 376.56 C 44.11 377.46 37.91 367.55 41.81 360.88 C 43.69 357.75 46.98 355.68 50.42 354.65 M 50.34 359.48 C 47.96 360.56 45.59 362.33 44.88 364.97 C 43.99 368.61 47.26 372.65 51.08 372.13 C 54.81 371.51 58.89 368.97 59.58 365.00 C 59.83 360.28 54.43 356.89 50.34 359.48 Z" />
<path fill="#fcd116" opacity="1.00" d=" M 430.19 373.43 C 430.98 372.30 431.78 371.18 432.60 370.07 C 438.51 374.41 444.45 378.72 450.36 383.06 C 449.50 384.25 448.64 385.44 447.80 386.63 C 442.17 386.24 436.55 385.76 430.93 385.35 C 434.78 388.20 438.66 390.99 442.52 393.84 C 441.70 394.93 440.89 396.03 440.08 397.13 C 434.15 392.81 428.23 388.48 422.31 384.15 C 423.15 382.98 424.01 381.83 424.86 380.68 C 430.56 381.14 436.26 381.63 441.97 382.04 C 438.06 379.14 434.13 376.27 430.19 373.43 Z" />
<path fill="#fcd116" opacity="1.00" d=" M 53.14 387.32 C 59.01 382.92 64.86 378.49 70.73 374.08 C 73.77 378.09 76.79 382.12 79.81 386.14 C 78.83 386.87 77.85 387.61 76.86 388.35 C 74.72 385.53 72.59 382.69 70.48 379.84 C 69.06 380.88 67.64 381.92 66.23 382.97 C 68.11 385.44 69.97 387.92 71.76 390.46 C 70.77 391.16 69.78 391.86 68.80 392.57 C 66.95 390.12 65.11 387.67 63.26 385.23 C 60.77 387.10 58.28 388.98 55.79 390.85 C 54.91 389.67 54.02 388.49 53.14 387.32 Z" />
<path fill="#fcd116" opacity="1.00" d=" M 406.99 401.48 C 410.65 397.46 414.31 393.43 417.99 389.43 C 418.90 390.25 419.81 391.09 420.74 391.92 C 418.06 394.87 415.37 397.79 412.72 400.75 C 413.91 401.83 415.10 402.93 416.29 404.03 C 418.79 401.37 421.24 398.68 423.63 395.92 C 424.62 396.69 425.59 397.46 426.59 398.26 C 424.10 401.04 421.56 403.77 419.08 406.56 C 420.53 407.89 421.99 409.23 423.44 410.58 C 426.28 407.60 429.01 404.51 431.80 401.49 C 432.71 402.31 433.61 403.14 434.52 403.97 C 430.77 408.10 427.03 412.23 423.25 416.32 C 417.83 411.36 412.39 406.44 406.99 401.48 Z" />
<path fill="#fcd116" opacity="1.00" d=" M 67.58 405.77 C 72.93 400.70 78.30 395.64 83.89 390.84 C 87.22 394.55 90.62 398.20 93.99 401.88 C 93.07 402.71 92.15 403.55 91.23 404.39 C 88.83 401.77 86.43 399.15 84.01 396.54 C 82.72 397.71 81.43 398.89 80.15 400.07 C 82.24 402.35 84.33 404.62 86.41 406.91 C 85.46 407.72 84.52 408.54 83.58 409.36 C 81.56 407.09 79.51 404.86 77.47 402.61 C 75.14 404.67 72.84 406.78 70.56 408.91 C 69.57 407.86 68.57 406.81 67.58 405.77 Z" />
<path fill="#fcd116" opacity="1.00" d=" M 83.81 422.50 C 88.74 417.04 93.84 411.74 98.84 406.35 C 99.90 407.36 100.97 408.38 102.04 409.41 C 97.00 414.71 92.04 420.10 87.02 425.42 C 85.95 424.44 84.88 423.47 83.81 422.50 Z" />
<path fill="#fcd116" opacity="1.00" d=" M 388.84 418.00 C 393.17 414.77 396.85 408.76 402.98 409.62 C 408.71 411.14 413.72 416.85 413.44 422.95 C 412.34 428.28 406.93 430.92 403.38 434.52 C 398.56 428.99 393.66 423.52 388.84 418.00 M 394.58 417.85 C 397.80 421.52 401.04 425.18 404.28 428.83 C 406.37 426.70 410.35 424.61 409.16 421.07 C 407.70 417.99 405.30 415.01 402.05 413.77 C 398.94 413.25 396.80 416.17 394.58 417.85 Z" />
<path fill="#fcd116" opacity="1.00" d=" M 105.18 418.27 C 112.27 415.18 121.06 423.11 118.01 430.51 C 116.71 429.94 115.41 429.38 114.12 428.81 C 114.41 426.11 113.81 422.91 110.86 421.96 C 106.52 420.48 103.12 424.92 101.48 428.36 C 99.99 430.86 101.21 434.09 103.80 435.25 C 105.81 436.33 107.88 434.94 109.73 434.18 C 110.53 435.42 111.33 436.66 112.13 437.91 C 107.24 441.81 99.77 439.34 97.45 433.76 C 94.86 427.56 99.62 420.84 105.18 418.27 Z" />
<path fill="#fcd116" opacity="1.00" d=" M 379.53 425.08 C 380.70 424.20 381.88 423.32 383.06 422.46 C 387.44 428.33 391.83 434.21 396.19 440.11 C 395.02 440.98 393.85 441.86 392.69 442.74 C 388.29 436.86 383.90 430.97 379.53 425.08 Z" />
<path fill="#fcd116" opacity="1.00" d=" M 115.17 447.93 C 119.06 441.70 122.96 435.48 126.86 429.27 C 131.47 432.15 136.08 435.04 140.69 437.94 C 140.03 438.99 139.37 440.04 138.72 441.09 C 135.31 439.01 132.01 436.75 128.49 434.86 C 127.67 436.21 126.86 437.57 126.04 438.93 C 129.16 440.90 132.29 442.85 135.41 444.83 C 134.75 445.86 134.09 446.91 133.44 447.96 C 130.31 445.99 127.19 444.02 124.06 442.07 C 122.99 443.75 121.93 445.44 120.87 447.14 C 124.33 449.36 127.90 451.42 131.26 453.80 C 130.61 454.80 129.96 455.80 129.31 456.81 C 124.60 453.84 119.88 450.90 115.17 447.93 Z" />
<path fill="#fcd116" opacity="1.00" d=" M 362.93 436.96 C 365.83 432.29 373.24 429.51 377.33 434.33 C 376.18 435.23 375.02 436.13 373.86 437.02 C 372.39 436.38 370.80 435.09 369.20 436.18 C 367.47 436.87 364.65 439.53 367.12 441.05 C 370.85 441.63 374.33 438.70 378.15 439.20 C 382.45 439.59 385.06 445.15 382.83 448.80 C 380.90 451.81 377.53 453.91 374.01 454.47 C 371.21 454.90 368.96 452.93 367.05 451.20 C 368.13 450.33 369.21 449.46 370.31 448.60 C 372.13 449.88 374.53 451.19 376.64 449.64 C 378.87 448.73 380.66 445.15 377.95 443.69 C 373.99 443.56 370.36 446.43 366.35 445.48 C 362.80 444.66 360.93 440.01 362.93 436.96 Z" />
<path fill="#fcd116" opacity="1.00" d=" M 339.59 448.20 C 344.52 445.84 349.37 443.31 354.36 441.07 C 354.74 441.90 355.50 443.55 355.88 444.38 C 352.32 446.13 348.75 447.86 345.19 449.62 C 345.90 451.07 346.62 452.53 347.34 454.00 C 350.68 452.40 353.99 450.75 357.32 449.13 C 357.84 450.24 358.38 451.37 358.91 452.49 C 355.59 454.09 352.29 455.72 348.98 457.33 C 349.85 459.13 350.72 460.93 351.61 462.73 C 355.28 460.93 358.96 459.14 362.62 457.32 C 363.17 458.42 363.73 459.53 364.29 460.65 C 359.28 463.10 354.28 465.57 349.26 468.00 C 346.05 461.39 342.80 454.81 339.59 448.20 Z" />
<path fill="#fcd116" opacity="1.00" d=" M 158.34 449.50 C 164.23 447.47 171.98 451.44 172.69 457.90 C 173.10 462.31 171.24 466.92 167.91 469.83 C 161.85 474.93 150.79 470.00 150.78 462.00 C 150.88 456.99 153.51 451.49 158.34 449.50 M 160.22 453.29 C 156.91 455.12 155.08 459.23 155.39 462.93 C 155.77 466.83 160.78 469.24 164.07 467.13 C 166.71 465.34 168.02 462.10 168.32 459.03 C 168.88 454.85 163.85 451.75 160.22 453.29 Z" />
<path fill="#fcd116" opacity="1.00" d=" M 316.64 457.01 C 321.38 455.53 325.92 452.97 330.93 452.68 C 336.75 453.45 337.75 462.00 332.55 464.49 C 336.53 465.62 339.58 468.51 342.71 471.04 C 340.99 471.63 339.28 472.21 337.55 472.77 C 333.78 470.36 330.14 465.16 325.12 467.45 C 326.16 470.36 327.22 473.27 328.27 476.19 C 326.92 476.71 325.59 477.24 324.25 477.77 C 321.51 470.93 319.19 463.92 316.64 457.01 M 322.06 459.00 C 322.69 460.76 323.32 462.51 323.96 464.28 C 326.20 463.44 328.54 462.81 330.60 461.57 C 332.67 460.35 331.43 456.55 329.02 456.73 C 326.61 457.17 324.35 458.16 322.06 459.00 Z" />
<path fill="#fcd116" opacity="1.00" d=" M 175.45 477.36 C 177.52 470.33 179.58 463.28 181.66 456.25 C 186.47 457.65 191.27 459.08 196.08 460.47 C 195.75 461.66 195.43 462.86 195.11 464.06 C 191.70 463.08 188.29 462.08 184.89 461.05 C 184.37 462.73 183.86 464.41 183.35 466.10 C 186.24 466.95 189.13 467.80 192.05 468.58 C 191.78 469.80 191.51 471.02 191.24 472.25 C 188.27 471.39 185.29 470.52 182.32 469.65 C 181.44 472.66 180.56 475.66 179.64 478.66 C 178.24 478.22 176.84 477.79 175.45 477.36 Z" />
<path fill="#fcd116" opacity="1.00" d=" M 294.25 462.82 C 298.47 461.96 302.60 460.32 306.95 460.26 C 312.32 460.94 314.42 468.89 310.19 472.20 C 307.73 473.96 304.61 474.31 301.77 475.11 C 302.42 477.81 303.07 480.52 303.72 483.23 C 302.27 483.51 300.83 483.79 299.38 484.08 C 297.72 476.98 295.94 469.91 294.25 462.82 M 299.37 465.42 C 299.88 467.45 300.40 469.49 300.90 471.54 C 302.84 470.97 304.92 470.66 306.68 469.62 C 308.81 468.47 307.94 464.81 305.68 464.39 C 303.53 464.05 301.43 464.97 299.37 465.42 Z" />
<path fill="#fcd116" opacity="1.00" d=" M 212.31 464.02 C 218.11 464.76 223.91 465.53 229.70 466.38 C 229.56 467.29 229.29 469.10 229.15 470.01 C 226.99 469.73 224.84 469.45 222.69 469.19 C 221.87 475.22 221.07 481.27 220.23 487.31 C 218.78 487.10 217.33 486.89 215.88 486.70 C 216.67 480.65 217.50 474.61 218.32 468.58 C 216.17 468.27 214.02 467.97 211.87 467.68 C 212.02 466.45 212.16 465.23 212.31 464.02 Z" />
<path fill="#fcd116" opacity="1.00" d=" M 259.74 467.11 C 265.16 466.65 270.58 466.23 276.01 465.79 C 276.09 466.72 276.25 468.57 276.33 469.49 C 272.37 469.83 268.41 470.15 264.45 470.47 C 264.57 472.08 264.69 473.71 264.81 475.34 C 268.50 475.06 272.18 474.76 275.87 474.47 C 275.94 475.39 276.09 477.23 276.16 478.15 C 272.48 478.45 268.81 478.74 265.13 479.04 C 265.27 481.01 265.42 482.98 265.55 484.95 C 269.67 484.75 273.78 484.35 277.89 484.05 C 277.97 485.27 278.06 486.50 278.15 487.73 C 272.59 488.15 267.04 488.71 261.46 488.98 C 260.94 481.68 260.31 474.40 259.74 467.11 Z" />
<path fill="#fcd116" opacity="1.00" d=" M 235.17 466.79 C 236.63 466.83 238.10 466.87 239.58 466.93 C 239.50 469.81 239.41 472.71 239.33 475.60 C 242.23 475.68 245.13 475.77 248.04 475.85 C 248.13 472.96 248.21 470.07 248.30 467.19 C 249.77 467.22 251.24 467.26 252.71 467.30 C 252.49 474.64 252.28 481.98 252.05 489.32 C 250.58 489.27 249.12 489.23 247.65 489.20 C 247.74 485.98 247.83 482.76 247.90 479.54 C 245.00 479.47 242.11 479.39 239.22 479.31 C 239.12 482.51 239.02 485.72 238.93 488.93 C 237.47 488.89 236.00 488.86 234.54 488.84 C 234.67 481.48 234.95 474.14 235.17 466.79 Z" />
</g>
<g id="#0038a8ff">
<path fill="#0038a8" opacity="1.00" d=" M 288.60 137.46 C 290.52 137.49 292.45 137.49 294.37 137.50 C 284.31 146.08 274.06 154.46 263.85 162.88 C 261.97 162.81 260.09 162.78 258.22 162.79 C 268.33 154.33 278.46 145.90 288.60 137.46 Z" />
<path fill="#0038a8" opacity="1.00" d=" M 210.16 150.83 C 233.27 142.89 257.59 138.90 281.95 137.78 C 271.97 146.14 262.02 154.55 252.00 162.87 C 232.28 163.17 212.60 166.02 193.65 171.46 C 199.07 164.51 204.71 157.75 210.16 150.83 Z" />
<path fill="#0038a8" opacity="1.00" d=" M 303.58 166.77 C 315.70 158.15 328.01 149.79 340.34 141.47 C 343.22 142.26 346.23 142.51 349.10 143.35 L 349.18 143.89 C 337.02 152.40 324.43 160.28 312.16 168.64 C 309.31 167.97 306.47 167.25 303.58 166.77 Z" />
<path fill="#0038a8" opacity="1.00" d=" M 316.49 169.62 C 329.00 161.17 341.64 152.89 354.29 144.64 C 374.27 149.86 393.92 158.66 408.56 173.58 C 395.33 179.62 382.24 185.98 368.95 191.88 L 368.11 191.50 C 352.39 181.18 334.70 174.13 316.49 169.62 Z" />
<path fill="#0038a8" opacity="1.00" d=" M 195.62 156.50 C 197.94 155.33 200.43 154.54 202.88 153.67 C 197.59 160.19 192.49 166.86 187.21 173.39 C 185.04 174.07 182.88 174.76 180.74 175.51 C 185.59 169.10 190.46 162.68 195.62 156.50 Z" />
<path fill="#0038a8" opacity="1.00" d=" M 147.55 182.03 C 151.27 179.39 155.22 177.07 159.20 174.85 C 155.37 180.56 151.78 186.43 147.86 192.09 C 143.75 195.04 139.69 198.07 135.91 201.45 C 139.74 194.95 143.51 188.40 147.55 182.03 Z" />
<path fill="#0038a8" opacity="1.00" d=" M 107.80 213.88 C 117.37 204.27 127.85 195.52 139.03 187.83 C 123.36 214.85 107.64 241.83 91.96 268.85 C 89.97 268.31 87.97 267.79 85.97 267.29 C 93.30 249.51 100.37 231.62 107.80 213.88 Z" />
<path fill="#0038a8" opacity="1.00" d=" M 90.25 234.86 C 92.61 231.00 95.50 227.44 98.63 224.18 C 93.41 238.45 87.80 252.59 82.33 266.77 C 81.11 266.69 79.89 266.62 78.67 266.54 C 82.42 255.94 86.28 245.37 90.25 234.86 Z" />
<path fill="#0038a8" opacity="1.00" d=" M 95.47 269.33 C 101.62 258.52 108.14 247.91 114.57 237.27 C 114.36 239.52 114.21 241.79 114.16 244.06 C 108.27 252.63 102.90 261.57 96.94 270.08 L 95.84 270.31 L 95.47 269.33 Z" />
<path fill="#0038a8" opacity="1.00" d=" M 103.72 273.64 C 107.66 268.29 111.77 263.07 115.93 257.89 C 116.30 259.22 116.70 260.54 117.14 261.85 C 113.68 266.18 110.26 270.54 106.87 274.91 C 105.82 274.48 104.77 274.06 103.72 273.64 Z" />
<path fill="#0038a8" opacity="1.00" d=" M 118.37 264.89 C 119.44 267.29 120.62 269.64 121.96 271.91 C 119.01 274.32 116.10 276.77 113.16 279.19 C 111.81 278.24 110.45 277.30 109.09 276.36 C 112.22 272.56 115.28 268.71 118.37 264.89 Z" />
<path fill="#0038a8" opacity="1.00" d=" M 115.95 281.64 C 118.49 279.26 121.15 277.03 123.86 274.85 C 124.46 275.70 125.08 276.55 125.71 277.38 C 123.38 279.43 121.01 281.43 118.62 283.42 C 117.73 282.82 116.84 282.23 115.95 281.64 Z" />
<path fill="#0038a8" opacity="1.00" d=" M 124.28 289.79 C 126.80 288.06 129.32 286.34 131.86 284.63 C 132.55 285.35 133.25 286.06 133.96 286.77 C 131.38 288.47 128.81 290.19 126.21 291.86 C 125.73 291.35 124.76 290.31 124.28 289.79 Z" />
<path fill="#0038a8" opacity="1.00" d=" M 127.79 294.05 C 130.56 292.33 133.30 290.56 135.99 288.71 C 138.80 291.28 141.79 293.66 144.88 295.89 C 140.85 297.88 136.74 299.69 132.71 301.65 C 131.13 299.08 129.51 296.53 127.79 294.05 Z" />
</g>
<g id="#ce1126ff">
<path fill="#ce1126" opacity="1.00" d=" M 372.53 194.64 C 385.43 188.63 398.41 182.77 411.34 176.80 C 413.35 179.25 415.21 181.81 416.97 184.44 C 404.46 189.60 391.98 194.86 379.61 200.36 C 377.34 198.34 374.96 196.46 372.53 194.64 Z" />
<path fill="#ce1126" opacity="1.00" d=" M 400.67 231.13 C 409.36 228.40 417.97 225.40 426.67 222.69 C 426.29 225.65 425.84 228.60 425.24 231.52 C 417.53 233.71 409.94 236.31 402.23 238.53 C 401.84 236.03 401.32 233.56 400.67 231.13 Z" />
<path fill="#ce1126" opacity="1.00" d=" M 402.67 242.56 C 409.86 240.26 417.13 238.19 424.33 235.91 C 419.36 253.28 409.28 268.71 397.37 282.10 C 393.44 282.67 389.54 283.35 385.62 283.97 C 396.22 273.00 403.51 258.07 402.67 242.56 Z" />
<path fill="#ce1126" opacity="1.00" d=" M 379.66 289.79 C 383.71 288.75 387.86 288.24 391.99 287.65 C 390.13 289.79 388.31 292.06 385.96 293.68 C 381.35 294.74 376.66 295.36 371.97 295.97 C 374.62 294.02 377.14 291.90 379.66 289.79 Z" />
<path fill="#ce1126" opacity="1.00" d=" M 134.05 304.15 C 138.61 302.06 143.16 299.93 147.75 297.90 C 148.93 298.70 150.12 299.47 151.32 300.25 C 145.91 302.56 140.64 305.21 135.08 307.17 C 134.74 306.16 134.39 305.16 134.05 304.15 Z" />
<path fill="#ce1126" opacity="1.00" d=" M 165.96 308.33 C 167.32 308.99 168.71 309.60 170.10 310.23 C 160.51 313.31 150.86 316.20 141.25 319.23 C 139.66 320.16 138.70 319.16 138.09 317.66 C 147.28 314.26 156.69 311.51 165.96 308.33 Z" />
<path fill="#ce1126" opacity="1.00" d=" M 174.55 312.08 C 180.50 314.53 186.59 316.60 192.74 318.50 C 175.28 321.62 157.83 324.79 140.36 327.85 C 140.12 326.18 139.87 324.51 139.63 322.84 C 151.26 319.20 162.94 315.75 174.55 312.08 Z" />
<path fill="#ce1126" opacity="1.00" d=" M 199.91 320.40 C 203.56 321.32 207.22 322.19 210.93 322.84 C 187.44 326.74 163.95 330.58 140.46 334.48 C 140.44 333.53 140.39 331.64 140.37 330.70 C 160.22 327.30 180.11 324.07 199.91 320.40 Z" />
<path fill="#ce1126" opacity="1.00" d=" M 268.00 339.99 C 285.77 339.10 303.56 338.39 321.35 338.11 C 302.13 347.89 281.24 354.09 260.08 357.97 C 255.71 358.80 251.32 359.74 246.86 359.85 C 226.59 358.89 206.34 357.60 186.07 356.63 C 171.71 356.26 157.41 354.83 143.06 354.43 C 141.44 354.30 139.74 354.44 138.23 353.77 C 137.20 350.76 139.26 347.58 139.67 344.54 C 182.45 343.15 225.22 341.26 268.00 339.99 Z" />
<path fill="#ce1126" opacity="1.00" d=" M 148.44 356.84 C 162.98 357.45 177.48 358.76 192.02 359.45 C 204.99 359.94 217.92 361.32 230.90 361.82 C 205.29 364.13 179.25 363.45 153.98 358.40 C 152.10 357.99 150.25 357.48 148.44 356.84 Z" />
</g>
</svg>
