<?xml version="1.0" encoding="UTF-8" standalone="no"?>
<!-- Created with Inkscape (http://www.inkscape.org/) -->

<svg
   xmlns:dc="http://purl.org/dc/elements/1.1/"
   xmlns:cc="http://creativecommons.org/ns#"
   xmlns:rdf="http://www.w3.org/1999/02/22-rdf-syntax-ns#"
   xmlns:svg="http://www.w3.org/2000/svg"
   xmlns="http://www.w3.org/2000/svg"
   xmlns:sodipodi="http://sodipodi.sourceforge.net/DTD/sodipodi-0.dtd"
   xmlns:inkscape="http://www.inkscape.org/namespaces/inkscape"
   width="177.58324mm"
   height="192.76212mm"
   viewBox="0 0 177.58324 192.76212"
   version="1.1"
   id="svg8"
   inkscape:version="0.92.5 (2060ec1f9f, 2020-04-08)"
   sodipodi:docname="Seal_of_the_Department_of_Social_Welfare_and_Development.svg">
  <title
     id="title841">Department of Social Welfare and Development (DSWD)</title>
  <defs
     id="defs2" />
  <sodipodi:namedview
     id="base"
     pagecolor="#ffffff"
     bordercolor="#666666"
     borderopacity="1.0"
     inkscape:pageopacity="0.0"
     inkscape:pageshadow="2"
     inkscape:zoom="0.72159091"
     inkscape:cx="-66.606047"
     inkscape:cy="385.96412"
     inkscape:document-units="mm"
     inkscape:current-layer="layer1"
     showgrid="false"
     inkscape:snap-global="false"
     inkscape:snap-bbox="true"
     inkscape:bbox-paths="true"
     inkscape:bbox-nodes="true"
     inkscape:snap-bbox-edge-midpoints="true"
     inkscape:snap-bbox-midpoints="true"
     inkscape:object-paths="true"
     inkscape:snap-intersection-paths="true"
     inkscape:snap-smooth-nodes="true"
     inkscape:snap-midpoints="true"
     inkscape:snap-object-midpoints="true"
     inkscape:snap-center="true"
     fit-margin-top="0"
     fit-margin-left="0"
     fit-margin-right="0"
     fit-margin-bottom="0"
     inkscape:window-width="1920"
     inkscape:window-height="1009"
     inkscape:window-x="-8"
     inkscape:window-y="1068"
     inkscape:window-maximized="1" />
  <metadata
     id="metadata5">
    <rdf:RDF>
      <cc:Work
         rdf:about="">
        <dc:format>image/svg+xml</dc:format>
        <dc:type
           rdf:resource="http://purl.org/dc/dcmitype/StillImage" />
        <dc:title>Department of Social Welfare and Development (DSWD)</dc:title>
      </cc:Work>
    </rdf:RDF>
  </metadata>
  <g
     inkscape:label="Layer 1"
     inkscape:groupmode="layer"
     id="layer1"
     transform="translate(-5.1854501,-26.571163)">
    <path
       inkscape:connector-curvature="0"
       id="rect3046"
       style="color:#000000;fill:#ffffff;fill-opacity:1;stroke:#fcd116;stroke-width:4.4979167;stroke-linejoin:miter;stroke-miterlimit:4;stroke-dasharray:none;stroke-opacity:1;enable-background:accumulate"
       d="m 51.956418,49.456777 h 83.563352 24.69356 v 95.440503 c 0,13.68028 -11.01328,24.69356 -24.69356,24.69356 H 51.956418 C 38.276137,169.58819 27.262856,158.57623 27.262856,144.89728 V 49.456777 Z"
       stroke-miterlimit="4" />
    <path
       style="fill:#0038a8;fill-opacity:1;stroke-width:0.26458332"
       inkscape:connector-curvature="0"
       id="path2987"
       d="m 45.027775,60.820631 v 31.797625 l 45.005624,36.967584 v 29.56189 H 62.18865 V 140.27897 L 37.060906,117.26552 V 60.808725 Z" />
    <path
       style="fill:#0038a8;fill-opacity:1;stroke-width:0.26458332"
       inkscape:connector-curvature="0"
       id="path2987-7"
       d="M 142.44656,60.820631 V 92.618256 L 97.440939,129.58584 v 29.56189 h 27.844751 v -18.86876 l 25.12774,-23.01345 V 60.808725 Z" />
    <path
       style="fill:#ce1126;fill-opacity:1;stroke-width:0.26458332"
       inkscape:connector-curvature="0"
       id="path3025-4"
       d="M 50.584025,88.924673 V 63.821535 c 0,-1.79406 1.313127,-2.507853 2.507853,-2.507853 h 32.453791 l 8.192294,7.054057 8.192297,-7.054057 h 32.45379 c 1.19472,0 2.50785,0.713793 2.50785,2.507853 V 88.924673 L 93.73836,122.70403 Z" />
    <g
       aria-label="DSWD"
       style="font-style:normal;font-variant:normal;font-weight:bold;font-stretch:normal;font-size:38.79579163px;line-height:1.25;font-family:'Square721 BdEx BT';-inkscape-font-specification:'Square721 BdEx BT Bold';font-variant-ligatures:normal;font-variant-caps:normal;font-variant-numeric:normal;font-feature-settings:normal;text-align:center;letter-spacing:4.84947395px;writing-mode:lr-tb;text-anchor:middle;opacity:1;fill:#0038a8;fill-opacity:1;fill-rule:nonzero;stroke:none;stroke-width:1;stroke-linecap:square;stroke-linejoin:bevel;stroke-miterlimit:4;stroke-dasharray:none;stroke-dashoffset:0;stroke-opacity:1"
       id="text845">
      <path
         d="m 35.121142,203.32779 h 4.603212 q 3.997027,0 5.777694,-2.08376 1.799609,-2.1027 1.799609,-6.80063 0,-4.67898 -1.667007,-6.8764 -1.667006,-2.19742 -5.209395,-2.19742 h -5.304113 z m -5.626147,5.03891 v -27.90342 h 10.93026 q 6.421764,0 9.566345,3.46662 3.163524,3.46661 3.163524,10.5135 0,3.82654 -1.174482,6.7438 -1.155539,2.91727 -3.3719,4.69793 -1.667007,1.32603 -3.788652,1.91327 -2.121645,0.5683 -5.948183,0.5683 z"
         style="font-style:normal;font-variant:normal;font-weight:bold;font-stretch:normal;font-family:'Swis721 BT';-inkscape-font-specification:'Swis721 BT Bold';letter-spacing:4.84947395px;fill:#0038a8;fill-opacity:1;stroke:none;stroke-width:1;stroke-miterlimit:4;stroke-dasharray:none;stroke-opacity:1"
         id="path1002" />
      <path
         d="m 61.243894,199.74752 h 5.664034 q 0.322035,2.29213 1.875383,3.40978 1.553347,1.09871 4.489552,1.09871 2.50051,0 3.769708,-0.89033 1.269198,-0.89033 1.269198,-2.63311 0,-2.5384 -7.293154,-4.20541 -0.09472,-0.0189 -0.170489,-0.0379 -0.189433,-0.0379 -0.587241,-0.13261 -3.902311,-0.85244 -5.569318,-1.91327 -1.477574,-0.94716 -2.254248,-2.53839 -0.776673,-1.61018 -0.776673,-3.78865 0,-4.0728 2.765715,-6.23233 2.765716,-2.17848 7.994055,-2.17848 4.887361,0 7.634133,2.31108 2.765716,2.31108 2.917262,6.51648 h -5.512488 q -0.151546,-2.02693 -1.553348,-3.08775 -1.401801,-1.06082 -3.997027,-1.06082 -2.254248,0 -3.485559,0.89033 -1.212369,0.87139 -1.212369,2.50051 0,2.21636 4.754758,3.31507 1.288141,0.30309 2.007985,0.47358 3.049865,0.77667 4.319063,1.21237 1.288141,0.43569 2.235304,0.9661 1.704894,0.94717 2.55734,2.51946 0.852447,1.55334 0.852447,3.73182 0,4.35695 -2.936205,6.76274 -2.936205,2.38685 -8.278204,2.38685 -5.266225,0 -8.25926,-2.44368 -2.993035,-2.44368 -3.220354,-6.95217 z"
         style="font-style:normal;font-variant:normal;font-weight:bold;font-stretch:normal;font-family:'Swis721 BT';-inkscape-font-specification:'Swis721 BT Bold';letter-spacing:4.84947395px;fill:#0038a8;fill-opacity:1;stroke:none;stroke-width:1;stroke-miterlimit:4;stroke-dasharray:none;stroke-opacity:1"
         id="path1004" />
      <path
         d="m 98.713658,208.3667 -7.994054,-27.90342 h 5.948183 l 4.773703,19.68205 4.03491,-19.68205 h 6.11867 l 4.03492,19.68205 4.7737,-19.68205 h 5.89135 l -7.97511,27.90342 h -5.4746 l -4.31906,-21.368 -4.33801,21.368 z"
         style="font-style:normal;font-variant:normal;font-weight:bold;font-stretch:normal;font-family:'Swis721 BT';-inkscape-font-specification:'Swis721 BT Bold';letter-spacing:4.84947395px;fill:#0038a8;fill-opacity:1;stroke:none;stroke-width:1;stroke-miterlimit:4;stroke-dasharray:none;stroke-opacity:1"
         id="path1006" />
      <path
         d="m 139.99102,203.32779 h 4.60321 q 3.99702,0 5.77769,-2.08376 1.79961,-2.1027 1.79961,-6.80063 0,-4.67898 -1.66701,-6.8764 -1.667,-2.19742 -5.20939,-2.19742 h -5.30411 z m -5.62615,5.03891 v -27.90342 h 10.93026 q 6.42176,0 9.56634,3.46662 3.16353,3.46661 3.16353,10.5135 0,3.82654 -1.17449,6.7438 -1.15553,2.91727 -3.3719,4.69793 -1.667,1.32603 -3.78865,1.91327 -2.12164,0.5683 -5.94818,0.5683 z"
         style="font-style:normal;font-variant:normal;font-weight:bold;font-stretch:normal;font-family:'Swis721 BT';-inkscape-font-specification:'Swis721 BT Bold';letter-spacing:4.84947395px;fill:#0038a8;fill-opacity:1;stroke:none;stroke-width:1;stroke-miterlimit:4;stroke-dasharray:none;stroke-opacity:1"
         id="path1008" />
    </g>
  </g>
</svg>
