<svg xmlns="http://www.w3.org/2000/svg" xmlns:xlink="http://www.w3.org/1999/xlink" width="1080" zoomAndPan="magnify" viewBox="0 0 810 809.999993" height="1080" preserveAspectRatio="xMidYMid meet" version="1.0"><defs><clipPath id="fcece669e4"><path d="M 0 48.535156 L 810 48.535156 L 810 761.554688 L 0 761.554688 Z M 0 48.535156 " clip-rule="nonzero"/></clipPath></defs><g clip-path="url(#fcece669e4)"><path fill="#000000" d="M 367.570312 70.164062 L 5.863281 696.65625 C -10.789062 725.503906 10.023438 761.554688 43.332031 761.554688 L 766.742188 761.554688 C 800.050781 761.554688 820.863281 725.503906 804.210938 696.65625 L 442.507812 70.164062 C 425.851562 41.324219 384.222656 41.324219 367.570312 70.164062 L 5.863281 696.65625 C -10.789062 725.503906 10.023438 761.554688 43.332031 761.554688 L 766.742188 761.554688 C 800.050781 761.554688 820.863281 725.503906 804.210938 696.65625 L 442.507812 70.164062 C 425.851562 41.324219 384.222656 41.324219 367.570312 70.164062 " fill-opacity="1" fill-rule="nonzero"/></g><path fill="#fffdfd" d="M 441.335938 639.875 C 441.335938 659.925781 425.085938 676.175781 405.039062 676.175781 C 384.988281 676.175781 368.730469 659.925781 368.730469 639.875 C 368.730469 619.820312 384.988281 603.570312 405.039062 603.570312 C 425.085938 603.570312 441.335938 619.820312 441.335938 639.875 " fill-opacity="1" fill-rule="nonzero"/><path fill="#fffdfd" d="M 405.039062 280.773438 C 379.089844 280.773438 358.707031 302.988281 360.929688 328.835938 L 377.867188 525.765625 C 379.082031 539.871094 390.882812 550.695312 405.039062 550.695312 C 419.191406 550.695312 430.996094 539.871094 432.207031 525.765625 L 449.144531 328.835938 C 451.367188 302.988281 430.980469 280.773438 405.039062 280.773438 " fill-opacity="1" fill-rule="nonzero"/></svg>