<svg xmlns="http://www.w3.org/2000/svg" xmlns:xlink="http://www.w3.org/1999/xlink" width="1080" zoomAndPan="magnify" viewBox="0 0 810 809.999993" height="1080" preserveAspectRatio="xMidYMid meet" version="1.0"><path fill="#4caf4f" d="M 210.953125 123.160156 C 207.574219 123.160156 204.195312 124.226562 201.296875 126.398438 L 8.058594 271.328125 C 0.972656 276.644531 -0.496094 286.792969 4.820312 293.878906 C 10.132812 300.964844 20.285156 302.433594 27.371094 297.121094 L 33.816406 292.277344 L 33.816406 525.773438 C 33.816406 534.632812 41.0625 541.878906 49.921875 541.878906 L 130.4375 541.878906 L 130.4375 458.625 C 121.582031 455.40625 113.683594 449.78125 107.886719 442.050781 C 100.15625 431.746094 96.929688 419.011719 98.703125 406.289062 C 100.472656 393.40625 107.234375 382.125 117.542969 374.398438 L 334.464844 211.757812 L 220.609375 126.398438 C 217.710938 124.226562 214.335938 123.160156 210.953125 123.160156 Z M 597.433594 123.160156 C 594.054688 123.160156 590.679688 124.226562 587.78125 126.398438 L 473.921875 211.757812 L 690.847656 374.398438 C 701.152344 382.125 707.914062 393.40625 709.6875 406.289062 C 711.457031 419.011719 708.234375 431.746094 700.503906 442.050781 C 694.707031 449.78125 686.808594 455.40625 677.953125 458.625 L 677.953125 541.878906 L 758.46875 541.878906 C 767.324219 541.878906 774.574219 534.632812 774.574219 525.773438 L 774.574219 292.277344 L 781.019531 297.121094 C 788.105469 302.433594 798.257812 300.964844 803.570312 293.878906 C 808.886719 286.792969 807.417969 276.644531 800.332031 271.328125 L 607.089844 126.398438 C 604.191406 124.226562 600.816406 123.160156 597.433594 123.160156 Z M 404.195312 203.675781 C 400.8125 203.675781 397.4375 204.742188 394.539062 206.914062 L 136.886719 400.15625 C 129.800781 405.46875 128.332031 415.621094 133.644531 422.707031 C 138.960938 429.792969 149.109375 431.261719 156.195312 425.945312 L 162.644531 421.101562 L 162.644531 670.707031 C 162.644531 679.5625 169.890625 686.808594 178.746094 686.808594 L 436.402344 686.808594 L 436.402344 477.464844 L 549.125 477.464844 L 549.125 686.808594 L 629.640625 686.808594 C 638.5 686.808594 645.746094 679.5625 645.746094 670.707031 L 645.746094 421.101562 L 652.191406 425.945312 C 655.09375 428.203125 658.46875 429.15625 661.847656 429.15625 C 666.679688 429.15625 671.523438 426.894531 674.746094 422.707031 C 680.058594 415.621094 678.589844 405.46875 671.503906 400.15625 L 413.851562 206.914062 C 410.953125 204.742188 407.578125 203.675781 404.195312 203.675781 Z M 259.265625 477.464844 L 355.882812 477.464844 L 355.882812 574.085938 L 259.265625 574.085938 Z M 259.265625 477.464844 " fill-opacity="1" fill-rule="nonzero"/></svg>