<svg xmlns="http://www.w3.org/2000/svg" xmlns:xlink="http://www.w3.org/1999/xlink" width="1080" zoomAndPan="magnify" viewBox="0 0 810 809.999993" height="1080" preserveAspectRatio="xMidYMid meet" version="1.0"><defs><clipPath id="395a164fa1"><path d="M 47 19.34375 L 762 19.34375 L 762 790.34375 L 47 790.34375 Z M 47 19.34375 " clip-rule="nonzero"/></clipPath></defs><g clip-path="url(#395a164fa1)"><path fill="#4caf4f" d="M 404.464844 790.648438 L 395.523438 788.144531 C 62.320312 693.949219 48.171875 231.429688 47.714844 211.761719 L 47.0625 182.71875 L 75.816406 178.5 C 227.402344 156.132812 382.652344 36.289062 384.21875 35.085938 L 404.417969 19.34375 L 424.664062 35.0625 C 426.207031 36.289062 581.9375 156.179688 733.113281 178.5 L 761.867188 182.71875 L 761.21875 211.761719 C 760.734375 231.40625 746.636719 693.949219 413.40625 788.144531 Z M 115.296875 238.105469 C 123.613281 334.015625 168.757812 648.128906 404.464844 722.148438 C 640.703125 647.984375 685.460938 333.941406 693.65625 238.132812 C 568.246094 211.085938 450.503906 134.488281 404.464844 101.851562 C 358.378906 134.488281 240.683594 211.085938 115.296875 238.105469 Z M 115.296875 238.105469 " fill-opacity="1" fill-rule="nonzero"/></g><path fill="#4caf4f" d="M 404.464844 148.757812 C 352.113281 183.632812 259.195312 238.78125 157.117188 267.535156 C 170.761719 378.363281 221.089844 614.769531 404.464844 681.34375 C 586.925781 614.984375 637.738281 378.363281 651.621094 267.488281 C 549.664062 238.734375 456.769531 183.609375 404.464844 148.757812 Z M 401.453125 559.789062 L 269.320312 451.710938 C 254.398438 439.464844 252.132812 417.460938 264.378906 402.515625 C 276.527344 387.570312 298.652344 385.328125 313.570312 397.574219 L 393.234375 462.675781 L 518.355469 318.492188 C 530.960938 303.882812 553.085938 302.292969 567.644531 314.972656 C 582.277344 327.625 583.84375 349.730469 571.164062 364.261719 Z M 401.453125 559.789062 " fill-opacity="1" fill-rule="nonzero"/></svg>