<svg xmlns="http://www.w3.org/2000/svg" xmlns:xlink="http://www.w3.org/1999/xlink" width="1080" zoomAndPan="magnify" viewBox="0 0 810 809.999993" height="1080" preserveAspectRatio="xMidYMid meet" version="1.0"><defs><clipPath id="31f0972b08"><path d="M 50.625 0 L 759.375 0 L 759.375 810 L 50.625 810 Z M 50.625 0 " clip-rule="nonzero"/></clipPath></defs><g clip-path="url(#31f0972b08)"><path fill="#000000" d="M 582.15625 62.433594 C 495.53125 60.746094 428.035156 15.746094 404.972656 -0.00390625 C 381.910156 15.746094 314.414062 60.746094 227.792969 62.433594 C 132.734375 64.683594 73.109375 41.621094 50.609375 26.433594 L 50.609375 335.796875 C 50.609375 531.542969 202.480469 752.597656 404.972656 809.96875 C 506.21875 781.28125 595.09375 711.535156 658.089844 624.914062 C 721.089844 538.292969 759.335938 433.671875 759.335938 335.796875 L 759.335938 26.433594 C 736.835938 41.621094 677.214844 64.683594 582.15625 62.433594 Z M 721.089844 335.796875 C 721.089844 422.984375 686.777344 520.292969 627.152344 602.414062 C 567.53125 684.535156 488.78125 743.597656 404.972656 770.597656 C 320.601562 744.160156 242.417969 684.535156 182.792969 602.976562 C 123.171875 521.417969 88.859375 422.984375 88.859375 335.796875 L 88.859375 83.808594 C 129.921875 95.621094 172.667969 101.242188 215.417969 100.679688 L 228.917969 100.679688 C 287.976562 98.996094 348.164062 79.871094 404.972656 44.996094 C 461.785156 79.871094 521.96875 98.996094 581.03125 100.121094 L 594.53125 100.121094 C 637.277344 100.679688 680.027344 95.058594 721.089844 83.246094 Z M 683.402344 131.617188 L 683.402344 335.796875 C 683.402344 415.671875 651.902344 504.542969 596.78125 579.914062 C 544.46875 651.351562 476.972656 704.222656 404.972656 730.097656 C 332.976562 704.222656 265.480469 651.351562 213.167969 579.914062 C 158.046875 504.542969 126.546875 415.109375 126.546875 335.796875 L 126.546875 131.617188 C 155.792969 136.679688 185.605469 138.929688 215.417969 138.929688 L 229.480469 138.929688 C 291.351562 136.679688 350.976562 119.804688 404.972656 89.433594 C 458.410156 119.804688 518.59375 136.679688 580.46875 138.929688 L 594.53125 138.929688 C 624.339844 138.929688 654.152344 136.117188 683.402344 131.617188 Z M 683.402344 131.617188 " fill-opacity="1" fill-rule="nonzero"/></g></svg>