<svg xmlns="http://www.w3.org/2000/svg" xmlns:xlink="http://www.w3.org/1999/xlink" width="1080" zoomAndPan="magnify" viewBox="0 0 810 809.999993" height="1080" preserveAspectRatio="xMidYMid meet" version="1.0"><path fill="#4caf4f" d="M 798.285156 472.183594 L 765.082031 414.496094 C 763.113281 411.085938 763.117188 406.722656 764.996094 403.300781 L 798.21875 345.660156 C 805.839844 332.269531 807.839844 316.730469 803.828125 301.875 C 799.738281 287.011719 790.167969 274.601562 776.878906 266.925781 L 719.046875 233.640625 C 715.625 231.660156 713.5 227.976562 713.5 224.023438 L 713.5 157.871094 C 713.5 126.085938 687.640625 100.230469 655.855469 100.230469 L 589.730469 100.230469 C 585.777344 100.230469 582.09375 98.105469 580.121094 94.691406 L 546.839844 36.925781 C 531.042969 9.4375 495.710938 -0.0546875 468.078125 15.78125 L 410.394531 48.992188 C 407 50.953125 402.726562 50.9375 399.296875 48.984375 L 341.636719 15.785156 C 328.300781 8.082031 312.753906 6.046875 297.867188 10.039062 C 283.003906 14.023438 270.574219 23.566406 262.863281 36.921875 L 229.582031 94.769531 C 227.605469 98.195312 223.925781 100.320312 219.96875 100.320312 L 153.859375 100.320312 C 122.070312 100.320312 96.207031 126.183594 96.207031 157.972656 L 96.207031 224.113281 C 96.207031 228.070312 94.082031 231.753906 90.667969 233.726562 L 32.90625 267.023438 C 19.566406 274.722656 10.023438 287.15625 6.042969 302.007812 C 2.027344 316.875 4.066406 332.429688 11.777344 345.789062 L 44.980469 403.480469 C 46.941406 406.875 46.929688 411.152344 44.972656 414.585938 L 11.785156 472.257812 C 4.085938 485.59375 2.050781 501.144531 6.039062 516.035156 C 10.023438 530.902344 19.5625 543.332031 32.917969 551.046875 L 90.75 584.332031 C 94.175781 586.308594 96.300781 589.996094 96.300781 593.953125 L 96.300781 660.101562 C 96.300781 691.882812 122.160156 717.742188 153.945312 717.742188 L 219.980469 717.742188 C 223.933594 717.742188 227.617188 719.867188 229.589844 723.28125 L 262.878906 781.050781 C 273.132812 798.835938 292.300781 809.882812 312.914062 809.882812 C 322.902344 809.882812 332.824219 807.226562 341.636719 802.191406 L 399.316406 768.976562 C 402.707031 767.015625 406.976562 767.03125 410.417969 768.988281 L 468.023438 802.15625 C 476.757812 807.269531 486.738281 809.972656 496.898438 809.972656 C 502.363281 809.972656 507.375 809.238281 511.847656 807.839844 C 526.714844 803.851562 539.140625 794.304688 546.847656 780.957031 L 580.128906 723.109375 C 582.105469 719.683594 585.789062 717.558594 589.742188 717.558594 L 655.859375 717.558594 C 687.648438 717.558594 713.507812 691.695312 713.507812 659.902344 L 713.507812 593.855469 C 713.507812 589.949219 715.683594 586.257812 719.132812 584.246094 L 776.957031 550.964844 C 790.328125 543.308594 799.910156 530.875 803.945312 515.960938 C 807.960938 501.027344 805.957031 485.472656 798.285156 472.183594 Z M 113.566406 544.078125 L 55.710938 510.785156 C 53.128906 509.300781 51.351562 506.972656 50.574219 504.054688 C 49.816406 501.207031 50.242188 498.175781 51.761719 495.523438 L 84.964844 437.828125 C 95.144531 420.0625 95.144531 397.996094 84.957031 380.214844 L 51.765625 322.546875 C 50.277344 319.953125 49.882812 316.917969 50.664062 314.007812 C 51.441406 311.09375 53.214844 308.765625 55.816406 307.273438 L 113.589844 273.964844 C 131.359375 263.671875 142.398438 244.53125 142.398438 224.019531 L 142.398438 157.875 C 142.398438 151.761719 147.375 146.785156 153.492188 146.785156 L 219.613281 146.785156 C 240.261719 146.785156 259.410156 135.6875 269.566406 117.855469 L 302.859375 59.988281 C 304.34375 57.402344 306.664062 55.625 309.578125 54.851562 C 312.425781 54.101562 315.457031 54.515625 318.105469 56.039062 L 375.792969 89.253906 C 393.554688 99.433594 415.625 99.433594 433.394531 89.246094 L 491.050781 56.050781 C 493.644531 54.5625 496.667969 54.164062 499.589844 54.945312 C 502.5 55.726562 504.828125 57.5 506.316406 60.09375 L 539.617188 117.886719 C 549.910156 135.660156 569.046875 146.703125 589.554688 146.703125 L 655.675781 146.703125 C 661.792969 146.703125 666.773438 151.679688 666.773438 157.800781 L 666.773438 223.851562 C 666.773438 244.503906 677.871094 263.65625 695.695312 273.8125 L 753.535156 307.101562 C 758.871094 310.175781 760.730469 316.984375 757.679688 322.277344 L 724.484375 379.960938 L 724.203125 380.484375 C 714.382812 398.199219 714.554688 420.054688 724.660156 437.589844 L 757.847656 495.246094 C 759.335938 497.839844 759.730469 500.871094 758.953125 503.78125 C 758.175781 506.703125 756.398438 509.027344 753.804688 510.515625 L 695.960938 543.8125 C 678.121094 554.082031 667.039062 573.222656 667.039062 593.769531 L 667.039062 659.914062 C 667.039062 666.03125 662.0625 671.007812 655.945312 671.007812 L 589.90625 671.007812 C 569.261719 671.007812 550.117188 682.109375 539.957031 699.9375 L 506.664062 757.804688 C 505.175781 760.390625 502.855469 762.164062 499.789062 762.980469 C 497.035156 763.765625 494.050781 763.355469 491.414062 761.847656 L 433.734375 728.632812 C 424.960938 723.605469 415 720.945312 404.9375 720.945312 C 394.839844 720.945312 385.0625 723.542969 375.765625 728.730469 L 318.09375 761.941406 C 315.523438 763.421875 312.53125 763.820312 309.664062 763.042969 C 306.800781 762.277344 304.410156 760.441406 302.929688 757.878906 L 269.636719 700.09375 C 259.34375 682.316406 240.207031 671.273438 219.703125 671.273438 L 153.582031 671.273438 C 147.464844 671.273438 142.484375 666.296875 142.484375 660.175781 L 142.484375 594.035156 C 142.488281 573.390625 131.390625 554.242188 113.566406 544.078125 Z M 113.566406 544.078125 " fill-opacity="1" fill-rule="nonzero"/><path fill="#4caf4f" d="M 576.628906 292.835938 C 567.203125 282.25 550.953125 281.277344 540.3125 290.636719 L 334.28125 472.105469 L 271.453125 401.476562 C 262.039062 390.890625 245.777344 389.898438 235.136719 399.257812 C 224.492188 408.617188 223.496094 424.792969 232.90625 435.378906 L 312.464844 524.832031 C 314.84375 527.511719 317.65625 529.566406 320.714844 531 C 329.824219 535.53125 341.148438 534.425781 349.246094 527.296875 L 574.414062 328.9375 C 585.054688 319.578125 586.039062 303.402344 576.628906 292.835938 Z M 576.628906 292.835938 " fill-opacity="1" fill-rule="nonzero"/></svg>